{
	"patcher" : 	{
		"fileversion" : 1,
		"appversion" : 		{
			"major" : 8,
			"minor" : 1,
			"revision" : 0,
			"architecture" : "x64",
			"modernui" : 1
		}
,
		"classnamespace" : "box",
		"rect" : [ 799.0, 324.0, 452.0, 629.0 ],
		"bglocked" : 0,
		"openinpresentation" : 0,
		"default_fontsize" : 12.0,
		"default_fontface" : 0,
		"default_fontname" : "Arial",
		"gridonopen" : 1,
		"gridsize" : [ 15.0, 15.0 ],
		"gridsnaponopen" : 1,
		"objectsnaponopen" : 1,
		"statusbarvisible" : 2,
		"toolbarvisible" : 1,
		"lefttoolbarpinned" : 0,
		"toptoolbarpinned" : 0,
		"righttoolbarpinned" : 0,
		"bottomtoolbarpinned" : 0,
		"toolbars_unpinned_last_save" : 0,
		"tallnewobj" : 0,
		"boxanimatetime" : 200,
		"enablehscroll" : 1,
		"enablevscroll" : 1,
		"devicewidth" : 0.0,
		"description" : "",
		"digest" : "",
		"tags" : "",
		"style" : "",
		"subpatcher_template" : "",
		"showrootpatcherontab" : 0,
		"showontab" : 0,
		"boxes" : [ 			{
				"box" : 				{
					"bubble" : 1,
					"bubbletextmargin" : 10,
					"fontname" : "Helvetica Neue",
					"fontsize" : 12.0,
					"id" : "obj-12",
					"maxclass" : "comment",
					"numinlets" : 1,
					"numoutlets" : 0,
					"patching_rect" : [ 82.4375, 155.0, 221.0, 34.0 ],
					"text" : "this one should stay the last one",
					"textcolor" : [ 0.3, 0.3, 0.3, 1.0 ]
				}

			}
, 			{
				"box" : 				{
					"bubble" : 1,
					"bubbleside" : 0,
					"fontname" : "Arial",
					"fontsize" : 12.0,
					"id" : "obj-13",
					"linecount" : 6,
					"maxclass" : "comment",
					"numinlets" : 1,
					"numoutlets" : 0,
					"patching_rect" : [ 533.0, 3.5, 114.0, 106.0 ],
					"text" : "When you are done documenting a model, right-click on the tab bar and untick \"Show Root Patcher on Tab\""
				}

			}
, 			{
				"box" : 				{
					"bubble" : 1,
					"fontname" : "Arial",
					"fontsize" : 12.0,
					"id" : "obj-9",
					"maxclass" : "comment",
					"numinlets" : 1,
					"numoutlets" : 0,
					"patching_rect" : [ 96.21875, 54.0, 178.0, 24.0 ],
					"text" : "This is where the models go "
				}

			}
, 			{
				"box" : 				{
					"annotation" : "none",
					"color" : [ 0.619608, 0.0, 0.360784, 0.701961 ],
					"fontname" : "Arial",
					"fontsize" : 14.0,
					"id" : "obj-34",
					"maxclass" : "newobj",
					"numinlets" : 0,
					"numoutlets" : 0,
					"patcher" : 					{
						"fileversion" : 1,
						"appversion" : 						{
							"major" : 8,
							"minor" : 1,
							"revision" : 0,
							"architecture" : "x64",
							"modernui" : 1
						}
,
						"classnamespace" : "box",
						"rect" : [ 799.0, 350.0, 452.0, 603.0 ],
						"bglocked" : 0,
						"openinpresentation" : 0,
						"default_fontsize" : 12.0,
						"default_fontface" : 0,
						"default_fontname" : "Arial",
						"gridonopen" : 2,
						"gridsize" : [ 15.0, 15.0 ],
						"gridsnaponopen" : 2,
						"objectsnaponopen" : 0,
						"statusbarvisible" : 2,
						"toolbarvisible" : 1,
						"lefttoolbarpinned" : 0,
						"toptoolbarpinned" : 0,
						"righttoolbarpinned" : 0,
						"bottomtoolbarpinned" : 0,
						"toolbars_unpinned_last_save" : 0,
						"tallnewobj" : 0,
						"boxanimatetime" : 200,
						"enablehscroll" : 1,
						"enablevscroll" : 1,
						"devicewidth" : 0.0,
						"description" : "",
						"digest" : "",
						"tags" : "",
						"style" : "",
						"subpatcher_template" : "",
						"showontab" : 1,
						"boxes" : [ 							{
								"box" : 								{
									"id" : "obj-82",
									"maxclass" : "message",
									"numinlets" : 2,
									"numoutlets" : 1,
									"outlettype" : [ "" ],
									"patching_rect" : [ 510.0, 945.0, 18.0, 22.0 ],
									"presentation" : 1,
									"presentation_rect" : [ 165.0, 555.0, 18.0, 22.0 ],
									"text" : "1"
								}

							}
, 							{
								"box" : 								{
									"id" : "obj-83",
									"maxclass" : "message",
									"numinlets" : 2,
									"numoutlets" : 1,
									"outlettype" : [ "" ],
									"patching_rect" : [ 675.0, 945.0, 18.0, 22.0 ],
									"presentation" : 1,
									"presentation_rect" : [ 300.0, 555.0, 18.0, 22.0 ],
									"text" : "1"
								}

							}
, 							{
								"box" : 								{
									"id" : "obj-84",
									"maxclass" : "message",
									"numinlets" : 2,
									"numoutlets" : 1,
									"outlettype" : [ "" ],
									"patching_rect" : [ 825.0, 945.0, 18.0, 22.0 ],
									"presentation" : 1,
									"presentation_rect" : [ 435.0, 555.0, 18.0, 22.0 ],
									"text" : "1"
								}

							}
, 							{
								"box" : 								{
									"id" : "obj-79",
									"maxclass" : "message",
									"numinlets" : 2,
									"numoutlets" : 1,
									"outlettype" : [ "" ],
									"patching_rect" : [ 510.0, 735.0, 18.0, 22.0 ],
									"presentation" : 1,
									"presentation_rect" : [ 165.0, 495.0, 18.0, 22.0 ],
									"text" : "1"
								}

							}
, 							{
								"box" : 								{
									"id" : "obj-80",
									"maxclass" : "message",
									"numinlets" : 2,
									"numoutlets" : 1,
									"outlettype" : [ "" ],
									"patching_rect" : [ 675.0, 735.0, 18.0, 22.0 ],
									"presentation" : 1,
									"presentation_rect" : [ 300.0, 495.0, 18.0, 22.0 ],
									"text" : "1"
								}

							}
, 							{
								"box" : 								{
									"id" : "obj-81",
									"maxclass" : "message",
									"numinlets" : 2,
									"numoutlets" : 1,
									"outlettype" : [ "" ],
									"patching_rect" : [ 825.0, 735.0, 18.0, 22.0 ],
									"presentation" : 1,
									"presentation_rect" : [ 435.0, 495.0, 18.0, 22.0 ],
									"text" : "1"
								}

							}
, 							{
								"box" : 								{
									"id" : "obj-78",
									"maxclass" : "message",
									"numinlets" : 2,
									"numoutlets" : 1,
									"outlettype" : [ "" ],
									"patching_rect" : [ 510.0, 510.0, 18.0, 22.0 ],
									"presentation" : 1,
									"presentation_rect" : [ 165.0, 435.0, 18.0, 22.0 ],
									"text" : "1"
								}

							}
, 							{
								"box" : 								{
									"id" : "obj-77",
									"maxclass" : "message",
									"numinlets" : 2,
									"numoutlets" : 1,
									"outlettype" : [ "" ],
									"patching_rect" : [ 675.0, 510.0, 18.0, 22.0 ],
									"presentation" : 1,
									"presentation_rect" : [ 300.0, 435.0, 18.0, 22.0 ],
									"text" : "1"
								}

							}
, 							{
								"box" : 								{
									"id" : "obj-76",
									"maxclass" : "message",
									"numinlets" : 2,
									"numoutlets" : 1,
									"outlettype" : [ "" ],
									"patching_rect" : [ 825.0, 510.0, 18.0, 22.0 ],
									"presentation" : 1,
									"presentation_rect" : [ 435.0, 435.0, 18.0, 22.0 ],
									"text" : "1"
								}

							}
, 							{
								"box" : 								{
									"id" : "obj-65",
									"maxclass" : "newobj",
									"numinlets" : 1,
									"numoutlets" : 1,
									"outlettype" : [ "" ],
									"patching_rect" : [ 765.0, 645.0, 72.0, 22.0 ],
									"text" : "prepend set"
								}

							}
, 							{
								"box" : 								{
									"id" : "obj-66",
									"maxclass" : "newobj",
									"numinlets" : 2,
									"numoutlets" : 1,
									"outlettype" : [ "float" ],
									"patching_rect" : [ 765.0, 615.0, 33.0, 22.0 ],
									"text" : "- 0.5"
								}

							}
, 							{
								"box" : 								{
									"floatoutput" : 1,
									"id" : "obj-67",
									"maxclass" : "slider",
									"min" : 0.5,
									"numinlets" : 1,
									"numoutlets" : 1,
									"outlettype" : [ "" ],
									"parameter_enable" : 1,
									"patching_rect" : [ 765.0, 480.0, 120.0, 15.0 ],
									"presentation" : 1,
									"presentation_rect" : [ 330.0, 435.0, 90.0, 30.0 ],
									"saved_attribute_attributes" : 									{
										"valueof" : 										{
											"parameter_shortname" : "slider",
											"parameter_type" : 0,
											"parameter_longname" : "slider[6]",
											"parameter_mmax" : 1.5
										}

									}
,
									"size" : 1.5,
									"varname" : "slider[6]"
								}

							}
, 							{
								"box" : 								{
									"id" : "obj-68",
									"maxclass" : "newobj",
									"numinlets" : 1,
									"numoutlets" : 1,
									"outlettype" : [ "" ],
									"patching_rect" : [ 600.0, 645.0, 72.0, 22.0 ],
									"text" : "prepend set"
								}

							}
, 							{
								"box" : 								{
									"id" : "obj-69",
									"maxclass" : "newobj",
									"numinlets" : 2,
									"numoutlets" : 1,
									"outlettype" : [ "float" ],
									"patching_rect" : [ 600.0, 615.0, 33.0, 22.0 ],
									"text" : "- 0.5"
								}

							}
, 							{
								"box" : 								{
									"floatoutput" : 1,
									"id" : "obj-70",
									"maxclass" : "slider",
									"min" : 0.5,
									"numinlets" : 1,
									"numoutlets" : 1,
									"outlettype" : [ "" ],
									"parameter_enable" : 1,
									"patching_rect" : [ 600.0, 480.0, 120.0, 15.0 ],
									"presentation" : 1,
									"presentation_rect" : [ 195.0, 435.0, 90.0, 30.0 ],
									"saved_attribute_attributes" : 									{
										"valueof" : 										{
											"parameter_shortname" : "slider",
											"parameter_type" : 0,
											"parameter_longname" : "slider[7]",
											"parameter_mmax" : 1.5
										}

									}
,
									"size" : 1.5,
									"varname" : "slider[7]"
								}

							}
, 							{
								"box" : 								{
									"id" : "obj-71",
									"maxclass" : "newobj",
									"numinlets" : 1,
									"numoutlets" : 1,
									"outlettype" : [ "" ],
									"patching_rect" : [ 435.0, 645.0, 72.0, 22.0 ],
									"text" : "prepend set"
								}

							}
, 							{
								"box" : 								{
									"id" : "obj-72",
									"maxclass" : "newobj",
									"numinlets" : 2,
									"numoutlets" : 1,
									"outlettype" : [ "float" ],
									"patching_rect" : [ 435.0, 615.0, 33.0, 22.0 ],
									"text" : "- 0.5"
								}

							}
, 							{
								"box" : 								{
									"floatoutput" : 1,
									"id" : "obj-73",
									"maxclass" : "slider",
									"min" : 0.5,
									"numinlets" : 1,
									"numoutlets" : 1,
									"outlettype" : [ "" ],
									"parameter_enable" : 1,
									"patching_rect" : [ 435.0, 480.0, 120.0, 15.0 ],
									"presentation" : 1,
									"presentation_rect" : [ 60.0, 435.0, 90.0, 30.0 ],
									"saved_attribute_attributes" : 									{
										"valueof" : 										{
											"parameter_shortname" : "slider",
											"parameter_type" : 0,
											"parameter_longname" : "slider[8]",
											"parameter_mmax" : 1.5
										}

									}
,
									"size" : 1.5,
									"varname" : "slider[8]"
								}

							}
, 							{
								"box" : 								{
									"id" : "obj-54",
									"maxclass" : "newobj",
									"numinlets" : 1,
									"numoutlets" : 1,
									"outlettype" : [ "" ],
									"patching_rect" : [ 765.0, 870.0, 72.0, 22.0 ],
									"text" : "prepend set"
								}

							}
, 							{
								"box" : 								{
									"id" : "obj-55",
									"maxclass" : "newobj",
									"numinlets" : 2,
									"numoutlets" : 1,
									"outlettype" : [ "float" ],
									"patching_rect" : [ 765.0, 840.0, 33.0, 22.0 ],
									"text" : "- 0.5"
								}

							}
, 							{
								"box" : 								{
									"floatoutput" : 1,
									"id" : "obj-56",
									"maxclass" : "slider",
									"min" : 0.5,
									"numinlets" : 1,
									"numoutlets" : 1,
									"outlettype" : [ "" ],
									"parameter_enable" : 1,
									"patching_rect" : [ 765.0, 705.0, 120.0, 15.0 ],
									"presentation" : 1,
									"presentation_rect" : [ 330.0, 495.0, 90.0, 30.0 ],
									"saved_attribute_attributes" : 									{
										"valueof" : 										{
											"parameter_shortname" : "slider",
											"parameter_type" : 0,
											"parameter_longname" : "slider[3]",
											"parameter_mmax" : 1.5
										}

									}
,
									"size" : 1.5,
									"varname" : "slider[3]"
								}

							}
, 							{
								"box" : 								{
									"id" : "obj-57",
									"maxclass" : "newobj",
									"numinlets" : 1,
									"numoutlets" : 1,
									"outlettype" : [ "" ],
									"patching_rect" : [ 600.0, 870.0, 72.0, 22.0 ],
									"text" : "prepend set"
								}

							}
, 							{
								"box" : 								{
									"id" : "obj-58",
									"maxclass" : "newobj",
									"numinlets" : 2,
									"numoutlets" : 1,
									"outlettype" : [ "float" ],
									"patching_rect" : [ 600.0, 840.0, 33.0, 22.0 ],
									"text" : "- 0.5"
								}

							}
, 							{
								"box" : 								{
									"floatoutput" : 1,
									"id" : "obj-59",
									"maxclass" : "slider",
									"min" : 0.5,
									"numinlets" : 1,
									"numoutlets" : 1,
									"outlettype" : [ "" ],
									"parameter_enable" : 1,
									"patching_rect" : [ 600.0, 705.0, 120.0, 15.0 ],
									"presentation" : 1,
									"presentation_rect" : [ 195.0, 495.0, 90.0, 30.0 ],
									"saved_attribute_attributes" : 									{
										"valueof" : 										{
											"parameter_shortname" : "slider",
											"parameter_type" : 0,
											"parameter_longname" : "slider[4]",
											"parameter_mmax" : 1.5
										}

									}
,
									"size" : 1.5,
									"varname" : "slider[4]"
								}

							}
, 							{
								"box" : 								{
									"id" : "obj-60",
									"maxclass" : "newobj",
									"numinlets" : 1,
									"numoutlets" : 1,
									"outlettype" : [ "" ],
									"patching_rect" : [ 435.0, 870.0, 72.0, 22.0 ],
									"text" : "prepend set"
								}

							}
, 							{
								"box" : 								{
									"id" : "obj-61",
									"maxclass" : "newobj",
									"numinlets" : 2,
									"numoutlets" : 1,
									"outlettype" : [ "float" ],
									"patching_rect" : [ 435.0, 840.0, 33.0, 22.0 ],
									"text" : "- 0.5"
								}

							}
, 							{
								"box" : 								{
									"floatoutput" : 1,
									"id" : "obj-62",
									"maxclass" : "slider",
									"min" : 0.5,
									"numinlets" : 1,
									"numoutlets" : 1,
									"outlettype" : [ "" ],
									"parameter_enable" : 1,
									"patching_rect" : [ 435.0, 705.0, 120.0, 15.0 ],
									"presentation" : 1,
									"presentation_rect" : [ 60.0, 495.0, 90.0, 30.0 ],
									"saved_attribute_attributes" : 									{
										"valueof" : 										{
											"parameter_shortname" : "slider",
											"parameter_type" : 0,
											"parameter_longname" : "slider[5]",
											"parameter_mmax" : 1.5
										}

									}
,
									"size" : 1.5,
									"varname" : "slider[5]"
								}

							}
, 							{
								"box" : 								{
									"id" : "obj-51",
									"maxclass" : "newobj",
									"numinlets" : 1,
									"numoutlets" : 1,
									"outlettype" : [ "" ],
									"patching_rect" : [ 765.0, 1080.0, 72.0, 22.0 ],
									"text" : "prepend set"
								}

							}
, 							{
								"box" : 								{
									"id" : "obj-52",
									"maxclass" : "newobj",
									"numinlets" : 2,
									"numoutlets" : 1,
									"outlettype" : [ "float" ],
									"patching_rect" : [ 765.0, 1050.0, 33.0, 22.0 ],
									"text" : "- 0.5"
								}

							}
, 							{
								"box" : 								{
									"floatoutput" : 1,
									"id" : "obj-53",
									"maxclass" : "slider",
									"min" : 0.5,
									"numinlets" : 1,
									"numoutlets" : 1,
									"outlettype" : [ "" ],
									"parameter_enable" : 1,
									"patching_rect" : [ 765.0, 915.0, 120.0, 15.0 ],
									"presentation" : 1,
									"presentation_rect" : [ 330.0, 555.0, 90.0, 30.0 ],
									"saved_attribute_attributes" : 									{
										"valueof" : 										{
											"parameter_shortname" : "slider",
											"parameter_type" : 0,
											"parameter_longname" : "slider[2]",
											"parameter_mmax" : 1.5
										}

									}
,
									"size" : 1.5,
									"varname" : "slider[2]"
								}

							}
, 							{
								"box" : 								{
									"id" : "obj-47",
									"maxclass" : "newobj",
									"numinlets" : 1,
									"numoutlets" : 1,
									"outlettype" : [ "" ],
									"patching_rect" : [ 600.0, 1080.0, 72.0, 22.0 ],
									"text" : "prepend set"
								}

							}
, 							{
								"box" : 								{
									"id" : "obj-49",
									"maxclass" : "newobj",
									"numinlets" : 2,
									"numoutlets" : 1,
									"outlettype" : [ "float" ],
									"patching_rect" : [ 600.0, 1050.0, 33.0, 22.0 ],
									"text" : "- 0.5"
								}

							}
, 							{
								"box" : 								{
									"floatoutput" : 1,
									"id" : "obj-50",
									"maxclass" : "slider",
									"min" : 0.5,
									"numinlets" : 1,
									"numoutlets" : 1,
									"outlettype" : [ "" ],
									"parameter_enable" : 1,
									"patching_rect" : [ 600.0, 915.0, 120.0, 15.0 ],
									"presentation" : 1,
									"presentation_rect" : [ 195.0, 555.0, 90.0, 30.0 ],
									"saved_attribute_attributes" : 									{
										"valueof" : 										{
											"parameter_shortname" : "slider",
											"parameter_type" : 0,
											"parameter_longname" : "slider[1]",
											"parameter_mmax" : 1.5
										}

									}
,
									"size" : 1.5,
									"varname" : "slider[1]"
								}

							}
, 							{
								"box" : 								{
									"id" : "obj-44",
									"maxclass" : "newobj",
									"numinlets" : 1,
									"numoutlets" : 1,
									"outlettype" : [ "" ],
									"patching_rect" : [ 435.0, 1080.0, 72.0, 22.0 ],
									"text" : "prepend set"
								}

							}
, 							{
								"box" : 								{
									"id" : "obj-37",
									"maxclass" : "newobj",
									"numinlets" : 2,
									"numoutlets" : 1,
									"outlettype" : [ "float" ],
									"patching_rect" : [ 435.0, 1050.0, 33.0, 22.0 ],
									"text" : "- 0.5"
								}

							}
, 							{
								"box" : 								{
									"floatoutput" : 1,
									"id" : "obj-36",
									"maxclass" : "slider",
									"min" : 0.5,
									"numinlets" : 1,
									"numoutlets" : 1,
									"outlettype" : [ "" ],
									"parameter_enable" : 1,
									"patching_rect" : [ 435.0, 915.0, 120.0, 15.0 ],
									"presentation" : 1,
									"presentation_rect" : [ 60.0, 555.0, 90.0, 30.0 ],
									"saved_attribute_attributes" : 									{
										"valueof" : 										{
											"parameter_shortname" : "slider",
											"parameter_type" : 0,
											"parameter_longname" : "slider",
											"parameter_mmax" : 1.5
										}

									}
,
									"size" : 1.5,
									"varname" : "slider"
								}

							}
, 							{
								"box" : 								{
									"id" : "obj-35",
									"maxclass" : "message",
									"numinlets" : 2,
									"numoutlets" : 1,
									"outlettype" : [ "" ],
									"patching_rect" : [ 15.0, 180.0, 35.0, 22.0 ],
									"text" : "open"
								}

							}
, 							{
								"box" : 								{
									"id" : "obj-33",
									"maxclass" : "newobj",
									"numinlets" : 1,
									"numoutlets" : 2,
									"outlettype" : [ "jit_matrix", "" ],
									"patching_rect" : [ 15.0, 210.0, 147.0, 22.0 ],
									"text" : "jit.grab @output_texture 1"
								}

							}
, 							{
								"box" : 								{
									"fontname" : "Verdana",
									"fontsize" : 10.0,
									"id" : "obj-48",
									"maxclass" : "comment",
									"numinlets" : 1,
									"numoutlets" : 0,
									"patching_rect" : [ 630.0, 315.0, 45.0, 19.0 ],
									"presentation" : 1,
									"presentation_rect" : [ 150.0, 376.0, 45.0, 19.0 ],
									"text" : "break2"
								}

							}
, 							{
								"box" : 								{
									"annotation" : "Bloom blur amount.",
									"fontname" : "Verdana",
									"fontsize" : 10.0,
									"format" : 6,
									"id" : "obj-41",
									"maxclass" : "flonum",
									"numinlets" : 1,
									"numoutlets" : 2,
									"outlettype" : [ "", "bang" ],
									"parameter_enable" : 1,
									"patching_rect" : [ 570.0, 315.0, 50.0, 21.0 ],
									"presentation" : 1,
									"presentation_rect" : [ 210.0, 375.0, 50.0, 21.0 ],
									"saved_attribute_attributes" : 									{
										"valueof" : 										{
											"parameter_shortname" : "TOL[12]",
											"parameter_type" : 3,
											"parameter_longname" : "TOL[12]",
											"parameter_invisible" : 1
										}

									}
,
									"triangle" : 0,
									"varname" : "TOL[12]"
								}

							}
, 							{
								"box" : 								{
									"fontname" : "Verdana",
									"fontsize" : 10.0,
									"id" : "obj-42",
									"linecount" : 2,
									"maxclass" : "newobj",
									"numinlets" : 1,
									"numoutlets" : 3,
									"outlettype" : [ "", "", "" ],
									"patching_rect" : [ 570.0, 345.0, 105.0, 33.0 ],
									"text" : "ossia.remote brcosa_3ch/break2",
									"varname" : "tolerance[11]"
								}

							}
, 							{
								"box" : 								{
									"annotation" : "Bloom blur amount.",
									"fontname" : "Verdana",
									"fontsize" : 10.0,
									"format" : 6,
									"id" : "obj-43",
									"maxclass" : "flonum",
									"numinlets" : 1,
									"numoutlets" : 2,
									"outlettype" : [ "", "bang" ],
									"parameter_enable" : 1,
									"patching_rect" : [ 435.0, 315.0, 50.0, 21.0 ],
									"presentation" : 1,
									"presentation_rect" : [ 90.0, 375.0, 50.0, 21.0 ],
									"saved_attribute_attributes" : 									{
										"valueof" : 										{
											"parameter_shortname" : "TOL[13]",
											"parameter_type" : 3,
											"parameter_longname" : "TOL[13]",
											"parameter_invisible" : 1
										}

									}
,
									"triangle" : 0,
									"varname" : "TOL[13]"
								}

							}
, 							{
								"box" : 								{
									"fontname" : "Verdana",
									"fontsize" : 10.0,
									"id" : "obj-45",
									"linecount" : 2,
									"maxclass" : "newobj",
									"numinlets" : 1,
									"numoutlets" : 3,
									"outlettype" : [ "", "", "" ],
									"patching_rect" : [ 435.0, 345.0, 105.0, 33.0 ],
									"text" : "ossia.remote brcosa_3ch/break1",
									"varname" : "tolerance[12]"
								}

							}
, 							{
								"box" : 								{
									"fontname" : "Verdana",
									"fontsize" : 10.0,
									"id" : "obj-46",
									"maxclass" : "comment",
									"numinlets" : 1,
									"numoutlets" : 0,
									"patching_rect" : [ 495.0, 315.0, 45.0, 19.0 ],
									"presentation" : 1,
									"presentation_rect" : [ 15.0, 375.0, 63.0, 19.0 ],
									"text" : "break1"
								}

							}
, 							{
								"box" : 								{
									"id" : "obj-40",
									"maxclass" : "comment",
									"numinlets" : 1,
									"numoutlets" : 0,
									"patching_rect" : [ 765.0, 405.0, 31.0, 20.0 ],
									"presentation" : 1,
									"presentation_rect" : [ 330.0, 405.0, 45.0, 20.0 ],
									"text" : "high"
								}

							}
, 							{
								"box" : 								{
									"id" : "obj-39",
									"maxclass" : "comment",
									"numinlets" : 1,
									"numoutlets" : 0,
									"patching_rect" : [ 600.0, 405.0, 30.0, 20.0 ],
									"presentation" : 1,
									"presentation_rect" : [ 195.0, 405.0, 45.0, 20.0 ],
									"text" : "mid"
								}

							}
, 							{
								"box" : 								{
									"id" : "obj-38",
									"maxclass" : "comment",
									"numinlets" : 1,
									"numoutlets" : 0,
									"patching_rect" : [ 435.0, 405.0, 30.0, 20.0 ],
									"presentation" : 1,
									"presentation_rect" : [ 60.0, 405.0, 45.0, 20.0 ],
									"text" : "low"
								}

							}
, 							{
								"box" : 								{
									"annotation" : "Bloom blur amount.",
									"fontname" : "Verdana",
									"fontsize" : 10.0,
									"format" : 6,
									"id" : "obj-27",
									"maxclass" : "flonum",
									"numinlets" : 1,
									"numoutlets" : 2,
									"outlettype" : [ "", "bang" ],
									"parameter_enable" : 1,
									"patching_rect" : [ 600.0, 735.0, 50.0, 21.0 ],
									"saved_attribute_attributes" : 									{
										"valueof" : 										{
											"parameter_shortname" : "TOL[9]",
											"parameter_type" : 3,
											"parameter_longname" : "TOL[9]",
											"parameter_invisible" : 1
										}

									}
,
									"triangle" : 0,
									"varname" : "TOL[9]"
								}

							}
, 							{
								"box" : 								{
									"fontname" : "Verdana",
									"fontsize" : 10.0,
									"id" : "obj-28",
									"linecount" : 2,
									"maxclass" : "newobj",
									"numinlets" : 1,
									"numoutlets" : 3,
									"outlettype" : [ "", "", "" ],
									"patching_rect" : [ 600.0, 780.0, 101.0, 33.0 ],
									"text" : "ossia.remote brcosa_3ch/mi_co",
									"varname" : "tolerance[8]"
								}

							}
, 							{
								"box" : 								{
									"annotation" : "Bloom blur amount.",
									"fontname" : "Verdana",
									"fontsize" : 10.0,
									"format" : 6,
									"id" : "obj-29",
									"maxclass" : "flonum",
									"numinlets" : 1,
									"numoutlets" : 2,
									"outlettype" : [ "", "bang" ],
									"parameter_enable" : 1,
									"patching_rect" : [ 600.0, 510.0, 50.0, 21.0 ],
									"saved_attribute_attributes" : 									{
										"valueof" : 										{
											"parameter_shortname" : "TOL[10]",
											"parameter_type" : 3,
											"parameter_longname" : "TOL[10]",
											"parameter_invisible" : 1
										}

									}
,
									"triangle" : 0,
									"varname" : "TOL[10]"
								}

							}
, 							{
								"box" : 								{
									"fontname" : "Verdana",
									"fontsize" : 10.0,
									"id" : "obj-30",
									"linecount" : 2,
									"maxclass" : "newobj",
									"numinlets" : 1,
									"numoutlets" : 3,
									"outlettype" : [ "", "", "" ],
									"patching_rect" : [ 600.0, 555.0, 100.0, 33.0 ],
									"text" : "ossia.remote brcosa_3ch/mi_br",
									"varname" : "tolerance[9]"
								}

							}
, 							{
								"box" : 								{
									"annotation" : "Bloom gain amount.",
									"fontname" : "Verdana",
									"fontsize" : 10.0,
									"format" : 6,
									"id" : "obj-31",
									"maxclass" : "flonum",
									"numinlets" : 1,
									"numoutlets" : 2,
									"outlettype" : [ "", "bang" ],
									"parameter_enable" : 1,
									"patching_rect" : [ 600.0, 945.0, 50.0, 21.0 ],
									"saved_attribute_attributes" : 									{
										"valueof" : 										{
											"parameter_shortname" : "TOL[11]",
											"parameter_type" : 3,
											"parameter_longname" : "TOL[11]",
											"parameter_invisible" : 1
										}

									}
,
									"triangle" : 0,
									"varname" : "TOL[11]"
								}

							}
, 							{
								"box" : 								{
									"fontname" : "Verdana",
									"fontsize" : 10.0,
									"id" : "obj-32",
									"linecount" : 2,
									"maxclass" : "newobj",
									"numinlets" : 1,
									"numoutlets" : 3,
									"outlettype" : [ "", "", "" ],
									"patching_rect" : [ 600.0, 990.0, 105.0, 33.0 ],
									"text" : "ossia.remote brcosa_3ch/mi_sa",
									"varname" : "tolerance[10]"
								}

							}
, 							{
								"box" : 								{
									"annotation" : "Bloom blur amount.",
									"fontname" : "Verdana",
									"fontsize" : 10.0,
									"format" : 6,
									"id" : "obj-16",
									"maxclass" : "flonum",
									"numinlets" : 1,
									"numoutlets" : 2,
									"outlettype" : [ "", "bang" ],
									"parameter_enable" : 1,
									"patching_rect" : [ 765.0, 735.0, 50.0, 21.0 ],
									"saved_attribute_attributes" : 									{
										"valueof" : 										{
											"parameter_shortname" : "TOL[6]",
											"parameter_type" : 3,
											"parameter_longname" : "TOL[6]",
											"parameter_invisible" : 1
										}

									}
,
									"triangle" : 0,
									"varname" : "TOL[6]"
								}

							}
, 							{
								"box" : 								{
									"fontname" : "Verdana",
									"fontsize" : 10.0,
									"id" : "obj-17",
									"linecount" : 2,
									"maxclass" : "newobj",
									"numinlets" : 1,
									"numoutlets" : 3,
									"outlettype" : [ "", "", "" ],
									"patching_rect" : [ 765.0, 780.0, 105.0, 33.0 ],
									"text" : "ossia.remote brcosa_3ch/hi_co",
									"varname" : "tolerance[5]"
								}

							}
, 							{
								"box" : 								{
									"annotation" : "Bloom blur amount.",
									"fontname" : "Verdana",
									"fontsize" : 10.0,
									"format" : 6,
									"id" : "obj-18",
									"maxclass" : "flonum",
									"numinlets" : 1,
									"numoutlets" : 2,
									"outlettype" : [ "", "bang" ],
									"parameter_enable" : 1,
									"patching_rect" : [ 765.0, 510.0, 50.0, 21.0 ],
									"saved_attribute_attributes" : 									{
										"valueof" : 										{
											"parameter_shortname" : "TOL[7]",
											"parameter_type" : 3,
											"parameter_longname" : "TOL[7]",
											"parameter_invisible" : 1
										}

									}
,
									"triangle" : 0,
									"varname" : "TOL[7]"
								}

							}
, 							{
								"box" : 								{
									"fontname" : "Verdana",
									"fontsize" : 10.0,
									"id" : "obj-19",
									"linecount" : 2,
									"maxclass" : "newobj",
									"numinlets" : 1,
									"numoutlets" : 3,
									"outlettype" : [ "", "", "" ],
									"patching_rect" : [ 765.0, 555.0, 105.0, 33.0 ],
									"text" : "ossia.remote brcosa_3ch/hi_br",
									"varname" : "tolerance[6]"
								}

							}
, 							{
								"box" : 								{
									"annotation" : "Bloom gain amount.",
									"fontname" : "Verdana",
									"fontsize" : 10.0,
									"format" : 6,
									"id" : "obj-21",
									"maxclass" : "flonum",
									"numinlets" : 1,
									"numoutlets" : 2,
									"outlettype" : [ "", "bang" ],
									"parameter_enable" : 1,
									"patching_rect" : [ 765.0, 945.0, 50.0, 21.0 ],
									"saved_attribute_attributes" : 									{
										"valueof" : 										{
											"parameter_shortname" : "TOL[8]",
											"parameter_type" : 3,
											"parameter_longname" : "TOL[8]",
											"parameter_invisible" : 1
										}

									}
,
									"triangle" : 0,
									"varname" : "TOL[8]"
								}

							}
, 							{
								"box" : 								{
									"fontname" : "Verdana",
									"fontsize" : 10.0,
									"id" : "obj-24",
									"linecount" : 2,
									"maxclass" : "newobj",
									"numinlets" : 1,
									"numoutlets" : 3,
									"outlettype" : [ "", "", "" ],
									"patching_rect" : [ 765.0, 990.0, 105.0, 33.0 ],
									"text" : "ossia.remote brcosa_3ch/hi_sa",
									"varname" : "tolerance[7]"
								}

							}
, 							{
								"box" : 								{
									"fontname" : "Verdana",
									"fontsize" : 10.0,
									"id" : "obj-11",
									"maxclass" : "comment",
									"numinlets" : 1,
									"numoutlets" : 0,
									"patching_rect" : [ 330.0, 915.0, 63.0, 19.0 ],
									"presentation" : 1,
									"presentation_rect" : [ 15.0, 555.0, 30.0, 19.0 ],
									"text" : "sa"
								}

							}
, 							{
								"box" : 								{
									"annotation" : "Bloom blur amount.",
									"fontname" : "Verdana",
									"fontsize" : 10.0,
									"format" : 6,
									"id" : "obj-12",
									"maxclass" : "flonum",
									"numinlets" : 1,
									"numoutlets" : 2,
									"outlettype" : [ "", "bang" ],
									"parameter_enable" : 1,
									"patching_rect" : [ 435.0, 735.0, 50.0, 21.0 ],
									"saved_attribute_attributes" : 									{
										"valueof" : 										{
											"parameter_shortname" : "TOL[3]",
											"parameter_type" : 3,
											"parameter_longname" : "TOL[3]",
											"parameter_invisible" : 1
										}

									}
,
									"triangle" : 0,
									"varname" : "TOL[3]"
								}

							}
, 							{
								"box" : 								{
									"fontname" : "Verdana",
									"fontsize" : 10.0,
									"id" : "obj-14",
									"linecount" : 2,
									"maxclass" : "newobj",
									"numinlets" : 1,
									"numoutlets" : 3,
									"outlettype" : [ "", "", "" ],
									"patching_rect" : [ 435.0, 780.0, 105.0, 33.0 ],
									"text" : "ossia.remote brcosa_3ch/lo_co",
									"varname" : "tolerance[3]"
								}

							}
, 							{
								"box" : 								{
									"annotation" : "Bloom blur amount.",
									"fontname" : "Verdana",
									"fontsize" : 10.0,
									"format" : 6,
									"id" : "obj-15",
									"maxclass" : "flonum",
									"numinlets" : 1,
									"numoutlets" : 2,
									"outlettype" : [ "", "bang" ],
									"parameter_enable" : 1,
									"patching_rect" : [ 435.0, 510.0, 50.0, 21.0 ],
									"saved_attribute_attributes" : 									{
										"valueof" : 										{
											"parameter_shortname" : "TOL[1]",
											"parameter_type" : 3,
											"parameter_longname" : "TOL[1]",
											"parameter_invisible" : 1
										}

									}
,
									"triangle" : 0,
									"varname" : "TOL[1]"
								}

							}
, 							{
								"box" : 								{
									"fontname" : "Verdana",
									"fontsize" : 10.0,
									"id" : "obj-20",
									"linecount" : 2,
									"maxclass" : "newobj",
									"numinlets" : 1,
									"numoutlets" : 3,
									"outlettype" : [ "", "", "" ],
									"patching_rect" : [ 435.0, 555.0, 105.0, 33.0 ],
									"text" : "ossia.remote brcosa_3ch/lo_br",
									"varname" : "tolerance[1]"
								}

							}
, 							{
								"box" : 								{
									"fontname" : "Verdana",
									"fontsize" : 10.0,
									"id" : "obj-22",
									"maxclass" : "comment",
									"numinlets" : 1,
									"numoutlets" : 0,
									"patching_rect" : [ 330.0, 435.0, 63.0, 19.0 ],
									"presentation" : 1,
									"presentation_rect" : [ 15.0, 450.0, 30.0, 19.0 ],
									"text" : "br"
								}

							}
, 							{
								"box" : 								{
									"annotation" : "Bloom gain amount.",
									"fontname" : "Verdana",
									"fontsize" : 10.0,
									"format" : 6,
									"id" : "obj-23",
									"maxclass" : "flonum",
									"numinlets" : 1,
									"numoutlets" : 2,
									"outlettype" : [ "", "bang" ],
									"parameter_enable" : 1,
									"patching_rect" : [ 435.0, 945.0, 50.0, 21.0 ],
									"saved_attribute_attributes" : 									{
										"valueof" : 										{
											"parameter_shortname" : "TOL[2]",
											"parameter_type" : 3,
											"parameter_longname" : "TOL[2]",
											"parameter_invisible" : 1
										}

									}
,
									"triangle" : 0,
									"varname" : "TOL[2]"
								}

							}
, 							{
								"box" : 								{
									"fontname" : "Verdana",
									"fontsize" : 10.0,
									"id" : "obj-25",
									"linecount" : 2,
									"maxclass" : "newobj",
									"numinlets" : 1,
									"numoutlets" : 3,
									"outlettype" : [ "", "", "" ],
									"patching_rect" : [ 435.0, 990.0, 101.0, 33.0 ],
									"text" : "ossia.remote brcosa_3ch/lo_sa",
									"varname" : "tolerance[2]"
								}

							}
, 							{
								"box" : 								{
									"fontname" : "Verdana",
									"fontsize" : 10.0,
									"id" : "obj-26",
									"maxclass" : "comment",
									"numinlets" : 1,
									"numoutlets" : 0,
									"patching_rect" : [ 330.0, 705.0, 63.0, 19.0 ],
									"presentation" : 1,
									"presentation_rect" : [ 15.0, 495.0, 30.0, 19.0 ],
									"text" : "co"
								}

							}
, 							{
								"box" : 								{
									"id" : "obj-9",
									"maxclass" : "comment",
									"numinlets" : 1,
									"numoutlets" : 0,
									"patching_rect" : [ 15.0, 45.0, 285.0, 20.0 ],
									"text" : "jit.gl.pix-based brightness/contrast/saturation effect."
								}

							}
, 							{
								"box" : 								{
									"fontface" : 1,
									"fontsize" : 24.0,
									"id" : "obj-7",
									"maxclass" : "comment",
									"numinlets" : 1,
									"numoutlets" : 0,
									"patching_rect" : [ 15.0, 15.0, 330.0, 33.0 ],
									"text" : "gl_pix_brcosa.model"
								}

							}
, 							{
								"box" : 								{
									"id" : "obj-8",
									"maxclass" : "newobj",
									"numinlets" : 2,
									"numoutlets" : 1,
									"outlettype" : [ "" ],
									"patching_rect" : [ 15.0, 165.0, 63.0, 22.0 ],
									"text" : "pipe 1000"
								}

							}
, 							{
								"box" : 								{
									"id" : "obj-4",
									"maxclass" : "newobj",
									"numinlets" : 1,
									"numoutlets" : 1,
									"outlettype" : [ "" ],
									"patching_rect" : [ 15.0, 135.0, 100.0, 22.0 ],
									"text" : "loadmess 1"
								}

							}
, 							{
								"box" : 								{
									"id" : "obj-1",
									"maxclass" : "newobj",
									"numinlets" : 1,
									"numoutlets" : 2,
									"outlettype" : [ "jit_matrix", "" ],
									"patching_rect" : [ 15.0, 270.0, 245.0, 22.0 ],
									"text" : "jit.gl.videoplane default @preserve_aspect 1"
								}

							}
, 							{
								"box" : 								{
									"id" : "obj-5",
									"maxclass" : "newobj",
									"numinlets" : 1,
									"numoutlets" : 3,
									"outlettype" : [ "", "bang", "" ],
									"patching_rect" : [ 15.0, 105.0, 152.0, 22.0 ],
									"text" : "jit.world default @enable 1"
								}

							}
, 							{
								"box" : 								{
									"attr" : "enable",
									"id" : "obj-6",
									"maxclass" : "attrui",
									"numinlets" : 1,
									"numoutlets" : 1,
									"outlettype" : [ "" ],
									"patching_rect" : [ 15.0, 75.0, 86.0, 22.0 ],
									"text_width" : 65.0
								}

							}
, 							{
								"box" : 								{
									"annotation" : "none",
									"args" : [ "brcosa_3ch" ],
									"bgmode" : 0,
									"border" : 0,
									"clickthrough" : 0,
									"enablehscroll" : 0,
									"enablevscroll" : 0,
									"id" : "obj-3",
									"lockeddragscroll" : 1,
									"maxclass" : "bpatcher",
									"name" : "ossia.gl_pix_brcosa_3ch.view.maxpat",
									"numinlets" : 1,
									"numoutlets" : 1,
									"offset" : [ 0.0, 0.0 ],
									"outlettype" : [ "" ],
									"patching_rect" : [ 180.0, 75.0, 255.0, 165.0 ],
									"viewvisibility" : 1
								}

							}
, 							{
								"box" : 								{
									"annotation" : "jit.gl.pix-based brightness/contrast/saturation effect.",
									"fontface" : 0,
									"fontname" : "Arial",
									"fontsize" : 12.0,
									"id" : "obj-13",
									"maxclass" : "newobj",
									"numinlets" : 1,
									"numoutlets" : 2,
									"outlettype" : [ "jit_gl_texture", "" ],
									"patching_rect" : [ 15.0, 240.0, 241.0, 22.0 ],
									"text" : "ossia.gl_pix_brcosa_3ch.model brcosa_3ch",
									"varname" : "ossia.gl_pix_brcosa_3ch.model"
								}

							}
, 							{
								"box" : 								{
									"angle" : 270.0,
									"grad1" : [ 0.96078431372549, 0.96078431372549, 0.96078431372549, 1.0 ],
									"grad2" : [ 0.717647058823529, 0.705882352941177, 0.705882352941177, 1.0 ],
									"id" : "obj-88",
									"maxclass" : "panel",
									"mode" : 1,
									"numinlets" : 1,
									"numoutlets" : 0,
									"patching_rect" : [ 990.0, 975.0, 165.0, 30.0 ],
									"presentation" : 1,
									"presentation_rect" : [ 15.0, 540.0, 450.0, 60.0 ],
									"proportion" : 0.5
								}

							}
, 							{
								"box" : 								{
									"angle" : 270.0,
									"grad1" : [ 0.96078431372549, 0.96078431372549, 0.96078431372549, 1.0 ],
									"grad2" : [ 0.717647058823529, 0.705882352941177, 0.705882352941177, 1.0 ],
									"id" : "obj-87",
									"maxclass" : "panel",
									"mode" : 1,
									"numinlets" : 1,
									"numoutlets" : 0,
									"patching_rect" : [ 990.0, 945.0, 165.0, 30.0 ],
									"presentation" : 1,
									"presentation_rect" : [ 15.0, 480.0, 450.0, 60.0 ],
									"proportion" : 0.5
								}

							}
, 							{
								"box" : 								{
									"angle" : 270.0,
									"grad1" : [ 0.96078431372549, 0.96078431372549, 0.96078431372549, 1.0 ],
									"grad2" : [ 0.717647058823529, 0.705882352941177, 0.705882352941177, 1.0 ],
									"id" : "obj-86",
									"maxclass" : "panel",
									"mode" : 1,
									"numinlets" : 1,
									"numoutlets" : 0,
									"patching_rect" : [ 990.0, 915.0, 165.0, 30.0 ],
									"presentation" : 1,
									"presentation_rect" : [ 15.0, 420.0, 450.0, 60.0 ],
									"proportion" : 0.5
								}

							}
, 							{
								"box" : 								{
									"background" : 1,
									"id" : "obj-10",
									"ignoreclick" : 1,
									"maxclass" : "mira.frame",
									"numinlets" : 0,
									"numoutlets" : 0,
									"patching_rect" : [ 1065.0, 375.0, 741.939416615201367, 527.472540736198425 ],
									"presentation" : 1,
									"presentation_rect" : [ 15.0, 375.0, 464.175835847854614, 330.0 ],
									"tabname" : "shadows_highlights"
								}

							}
 ],
						"lines" : [ 							{
								"patchline" : 								{
									"destination" : [ "obj-14", 0 ],
									"source" : [ "obj-12", 0 ]
								}

							}
, 							{
								"patchline" : 								{
									"destination" : [ "obj-1", 0 ],
									"source" : [ "obj-13", 0 ]
								}

							}
, 							{
								"patchline" : 								{
									"destination" : [ "obj-12", 0 ],
									"midpoints" : [ 444.5, 816.0, 420.0, 816.0, 420.0, 729.0, 444.5, 729.0 ],
									"source" : [ "obj-14", 0 ]
								}

							}
, 							{
								"patchline" : 								{
									"destination" : [ "obj-61", 0 ],
									"midpoints" : [ 487.5, 826.0, 444.5, 826.0 ],
									"source" : [ "obj-14", 1 ]
								}

							}
, 							{
								"patchline" : 								{
									"destination" : [ "obj-20", 0 ],
									"source" : [ "obj-15", 0 ]
								}

							}
, 							{
								"patchline" : 								{
									"destination" : [ "obj-17", 0 ],
									"source" : [ "obj-16", 0 ]
								}

							}
, 							{
								"patchline" : 								{
									"destination" : [ "obj-16", 0 ],
									"midpoints" : [ 774.5, 816.0, 750.0, 816.0, 750.0, 729.0, 774.5, 729.0 ],
									"source" : [ "obj-17", 0 ]
								}

							}
, 							{
								"patchline" : 								{
									"destination" : [ "obj-55", 0 ],
									"midpoints" : [ 817.5, 826.0, 774.5, 826.0 ],
									"source" : [ "obj-17", 1 ]
								}

							}
, 							{
								"patchline" : 								{
									"destination" : [ "obj-19", 0 ],
									"source" : [ "obj-18", 0 ]
								}

							}
, 							{
								"patchline" : 								{
									"destination" : [ "obj-18", 0 ],
									"midpoints" : [ 774.5, 576.0, 750.0, 576.0, 750.0, 504.0, 774.5, 504.0 ],
									"source" : [ "obj-19", 0 ]
								}

							}
, 							{
								"patchline" : 								{
									"destination" : [ "obj-66", 0 ],
									"midpoints" : [ 817.5, 601.0, 774.5, 601.0 ],
									"source" : [ "obj-19", 1 ]
								}

							}
, 							{
								"patchline" : 								{
									"destination" : [ "obj-15", 0 ],
									"midpoints" : [ 444.5, 576.0, 420.0, 576.0, 420.0, 504.0, 444.5, 504.0 ],
									"source" : [ "obj-20", 0 ]
								}

							}
, 							{
								"patchline" : 								{
									"destination" : [ "obj-72", 0 ],
									"midpoints" : [ 487.5, 601.0, 444.5, 601.0 ],
									"source" : [ "obj-20", 1 ]
								}

							}
, 							{
								"patchline" : 								{
									"destination" : [ "obj-24", 0 ],
									"source" : [ "obj-21", 0 ]
								}

							}
, 							{
								"patchline" : 								{
									"destination" : [ "obj-25", 0 ],
									"source" : [ "obj-23", 0 ]
								}

							}
, 							{
								"patchline" : 								{
									"destination" : [ "obj-21", 0 ],
									"midpoints" : [ 774.5, 1026.0, 750.0, 1026.0, 750.0, 939.0, 774.5, 939.0 ],
									"source" : [ "obj-24", 0 ]
								}

							}
, 							{
								"patchline" : 								{
									"destination" : [ "obj-52", 0 ],
									"midpoints" : [ 817.5, 1036.0, 774.5, 1036.0 ],
									"source" : [ "obj-24", 1 ]
								}

							}
, 							{
								"patchline" : 								{
									"destination" : [ "obj-23", 0 ],
									"midpoints" : [ 444.5, 1026.0, 420.0, 1026.0, 420.0, 939.0, 444.5, 939.0 ],
									"source" : [ "obj-25", 0 ]
								}

							}
, 							{
								"patchline" : 								{
									"destination" : [ "obj-37", 0 ],
									"midpoints" : [ 485.5, 1036.0, 444.5, 1036.0 ],
									"source" : [ "obj-25", 1 ]
								}

							}
, 							{
								"patchline" : 								{
									"destination" : [ "obj-28", 0 ],
									"source" : [ "obj-27", 0 ]
								}

							}
, 							{
								"patchline" : 								{
									"destination" : [ "obj-27", 0 ],
									"midpoints" : [ 609.5, 816.0, 585.0, 816.0, 585.0, 729.0, 609.5, 729.0 ],
									"source" : [ "obj-28", 0 ]
								}

							}
, 							{
								"patchline" : 								{
									"destination" : [ "obj-58", 0 ],
									"midpoints" : [ 650.5, 826.0, 609.5, 826.0 ],
									"source" : [ "obj-28", 1 ]
								}

							}
, 							{
								"patchline" : 								{
									"destination" : [ "obj-30", 0 ],
									"source" : [ "obj-29", 0 ]
								}

							}
, 							{
								"patchline" : 								{
									"destination" : [ "obj-29", 0 ],
									"midpoints" : [ 609.5, 576.0, 585.0, 576.0, 585.0, 504.0, 609.5, 504.0 ],
									"source" : [ "obj-30", 0 ]
								}

							}
, 							{
								"patchline" : 								{
									"destination" : [ "obj-69", 0 ],
									"midpoints" : [ 650.0, 601.0, 609.5, 601.0 ],
									"source" : [ "obj-30", 1 ]
								}

							}
, 							{
								"patchline" : 								{
									"destination" : [ "obj-32", 0 ],
									"source" : [ "obj-31", 0 ]
								}

							}
, 							{
								"patchline" : 								{
									"destination" : [ "obj-31", 0 ],
									"midpoints" : [ 609.5, 1026.0, 585.0, 1026.0, 585.0, 939.0, 609.5, 939.0 ],
									"source" : [ "obj-32", 0 ]
								}

							}
, 							{
								"patchline" : 								{
									"destination" : [ "obj-49", 0 ],
									"midpoints" : [ 652.5, 1036.0, 609.5, 1036.0 ],
									"source" : [ "obj-32", 1 ]
								}

							}
, 							{
								"patchline" : 								{
									"destination" : [ "obj-13", 0 ],
									"source" : [ "obj-33", 0 ]
								}

							}
, 							{
								"patchline" : 								{
									"destination" : [ "obj-33", 0 ],
									"source" : [ "obj-35", 0 ]
								}

							}
, 							{
								"patchline" : 								{
									"destination" : [ "obj-23", 0 ],
									"source" : [ "obj-36", 0 ]
								}

							}
, 							{
								"patchline" : 								{
									"destination" : [ "obj-44", 0 ],
									"source" : [ "obj-37", 0 ]
								}

							}
, 							{
								"patchline" : 								{
									"destination" : [ "obj-8", 0 ],
									"source" : [ "obj-4", 0 ]
								}

							}
, 							{
								"patchline" : 								{
									"destination" : [ "obj-42", 0 ],
									"source" : [ "obj-41", 0 ]
								}

							}
, 							{
								"patchline" : 								{
									"destination" : [ "obj-41", 0 ],
									"midpoints" : [ 579.5, 381.0, 555.0, 381.0, 555.0, 309.0, 579.5, 309.0 ],
									"source" : [ "obj-42", 0 ]
								}

							}
, 							{
								"patchline" : 								{
									"destination" : [ "obj-45", 0 ],
									"source" : [ "obj-43", 0 ]
								}

							}
, 							{
								"patchline" : 								{
									"destination" : [ "obj-36", 0 ],
									"midpoints" : [ 444.5, 1114.3333340883255, 409.333333015441895, 1114.3333340883255, 409.333333015441895, 909.0, 444.5, 909.0 ],
									"source" : [ "obj-44", 0 ]
								}

							}
, 							{
								"patchline" : 								{
									"destination" : [ "obj-43", 0 ],
									"midpoints" : [ 444.5, 381.0, 420.0, 381.0, 420.0, 309.0, 444.5, 309.0 ],
									"source" : [ "obj-45", 0 ]
								}

							}
, 							{
								"patchline" : 								{
									"destination" : [ "obj-50", 0 ],
									"midpoints" : [ 609.5, 1113.000000715255737, 574.333333015441895, 1113.000000715255737, 574.333333015441895, 909.0, 609.5, 909.0 ],
									"source" : [ "obj-47", 0 ]
								}

							}
, 							{
								"patchline" : 								{
									"destination" : [ "obj-47", 0 ],
									"source" : [ "obj-49", 0 ]
								}

							}
, 							{
								"patchline" : 								{
									"destination" : [ "obj-31", 0 ],
									"source" : [ "obj-50", 0 ]
								}

							}
, 							{
								"patchline" : 								{
									"destination" : [ "obj-53", 0 ],
									"midpoints" : [ 774.5, 1113.000000715255737, 739.333333015441895, 1113.000000715255737, 739.333333015441895, 909.0, 774.5, 909.0 ],
									"source" : [ "obj-51", 0 ]
								}

							}
, 							{
								"patchline" : 								{
									"destination" : [ "obj-51", 0 ],
									"source" : [ "obj-52", 0 ]
								}

							}
, 							{
								"patchline" : 								{
									"destination" : [ "obj-21", 0 ],
									"source" : [ "obj-53", 0 ]
								}

							}
, 							{
								"patchline" : 								{
									"destination" : [ "obj-56", 0 ],
									"midpoints" : [ 774.5, 901.666667342185974, 739.333333015441895, 901.666667342185974, 739.333333015441895, 699.0, 774.5, 699.0 ],
									"source" : [ "obj-54", 0 ]
								}

							}
, 							{
								"patchline" : 								{
									"destination" : [ "obj-54", 0 ],
									"source" : [ "obj-55", 0 ]
								}

							}
, 							{
								"patchline" : 								{
									"destination" : [ "obj-16", 0 ],
									"source" : [ "obj-56", 0 ]
								}

							}
, 							{
								"patchline" : 								{
									"destination" : [ "obj-59", 0 ],
									"midpoints" : [ 609.5, 901.666667342185974, 574.333333015441895, 901.666667342185974, 574.333333015441895, 699.0, 609.5, 699.0 ],
									"source" : [ "obj-57", 0 ]
								}

							}
, 							{
								"patchline" : 								{
									"destination" : [ "obj-57", 0 ],
									"source" : [ "obj-58", 0 ]
								}

							}
, 							{
								"patchline" : 								{
									"destination" : [ "obj-27", 0 ],
									"source" : [ "obj-59", 0 ]
								}

							}
, 							{
								"patchline" : 								{
									"destination" : [ "obj-5", 0 ],
									"source" : [ "obj-6", 0 ]
								}

							}
, 							{
								"patchline" : 								{
									"destination" : [ "obj-62", 0 ],
									"midpoints" : [ 444.5, 900.333333969116211, 409.333333015441895, 900.333333969116211, 409.333333015441895, 699.0, 444.5, 699.0 ],
									"source" : [ "obj-60", 0 ]
								}

							}
, 							{
								"patchline" : 								{
									"destination" : [ "obj-60", 0 ],
									"source" : [ "obj-61", 0 ]
								}

							}
, 							{
								"patchline" : 								{
									"destination" : [ "obj-12", 0 ],
									"source" : [ "obj-62", 0 ]
								}

							}
, 							{
								"patchline" : 								{
									"destination" : [ "obj-67", 0 ],
									"midpoints" : [ 774.5, 669.0, 737.999999642372131, 669.0, 737.999999642372131, 474.0, 774.5, 474.0 ],
									"source" : [ "obj-65", 0 ]
								}

							}
, 							{
								"patchline" : 								{
									"destination" : [ "obj-65", 0 ],
									"source" : [ "obj-66", 0 ]
								}

							}
, 							{
								"patchline" : 								{
									"destination" : [ "obj-18", 0 ],
									"source" : [ "obj-67", 0 ]
								}

							}
, 							{
								"patchline" : 								{
									"destination" : [ "obj-70", 0 ],
									"midpoints" : [ 609.5, 669.0, 570.333332896232605, 669.0, 570.333332896232605, 474.0, 609.5, 474.0 ],
									"source" : [ "obj-68", 0 ]
								}

							}
, 							{
								"patchline" : 								{
									"destination" : [ "obj-68", 0 ],
									"source" : [ "obj-69", 0 ]
								}

							}
, 							{
								"patchline" : 								{
									"destination" : [ "obj-29", 0 ],
									"source" : [ "obj-70", 0 ]
								}

							}
, 							{
								"patchline" : 								{
									"destination" : [ "obj-73", 0 ],
									"midpoints" : [ 444.5, 675.333333969116211, 409.333333015441895, 675.333333969116211, 409.333333015441895, 474.0, 444.5, 474.0 ],
									"source" : [ "obj-71", 0 ]
								}

							}
, 							{
								"patchline" : 								{
									"destination" : [ "obj-71", 0 ],
									"source" : [ "obj-72", 0 ]
								}

							}
, 							{
								"patchline" : 								{
									"destination" : [ "obj-15", 0 ],
									"source" : [ "obj-73", 0 ]
								}

							}
, 							{
								"patchline" : 								{
									"destination" : [ "obj-19", 0 ],
									"midpoints" : [ 834.5, 543.0, 774.5, 543.0 ],
									"source" : [ "obj-76", 0 ]
								}

							}
, 							{
								"patchline" : 								{
									"destination" : [ "obj-30", 0 ],
									"midpoints" : [ 684.5, 543.0, 609.5, 543.0 ],
									"source" : [ "obj-77", 0 ]
								}

							}
, 							{
								"patchline" : 								{
									"destination" : [ "obj-20", 0 ],
									"midpoints" : [ 519.5, 543.0, 444.5, 543.0 ],
									"source" : [ "obj-78", 0 ]
								}

							}
, 							{
								"patchline" : 								{
									"destination" : [ "obj-14", 0 ],
									"midpoints" : [ 519.5, 768.0, 444.5, 768.0 ],
									"source" : [ "obj-79", 0 ]
								}

							}
, 							{
								"patchline" : 								{
									"destination" : [ "obj-28", 0 ],
									"midpoints" : [ 684.5, 768.0, 609.5, 768.0 ],
									"source" : [ "obj-80", 0 ]
								}

							}
, 							{
								"patchline" : 								{
									"destination" : [ "obj-17", 0 ],
									"midpoints" : [ 834.5, 768.0, 774.5, 768.0 ],
									"source" : [ "obj-81", 0 ]
								}

							}
, 							{
								"patchline" : 								{
									"destination" : [ "obj-25", 0 ],
									"midpoints" : [ 519.5, 978.0, 444.5, 978.0 ],
									"source" : [ "obj-82", 0 ]
								}

							}
, 							{
								"patchline" : 								{
									"destination" : [ "obj-32", 0 ],
									"midpoints" : [ 684.5, 978.0, 609.5, 978.0 ],
									"source" : [ "obj-83", 0 ]
								}

							}
, 							{
								"patchline" : 								{
									"destination" : [ "obj-24", 0 ],
									"midpoints" : [ 834.5, 978.0, 774.5, 978.0 ],
									"source" : [ "obj-84", 0 ]
								}

							}
 ],
						"styles" : [ 							{
								"name" : "AudioStatus_Menu",
								"default" : 								{
									"bgfillcolor" : 									{
										"type" : "color",
										"color" : [ 0.294118, 0.313726, 0.337255, 1 ],
										"color1" : [ 0.454902, 0.462745, 0.482353, 0.0 ],
										"color2" : [ 0.290196, 0.309804, 0.301961, 1.0 ],
										"angle" : 270.0,
										"proportion" : 0.39,
										"autogradient" : 0
									}

								}
,
								"parentstyle" : "",
								"multi" : 0
							}
, 							{
								"name" : "buttonBlue",
								"default" : 								{
									"bgcolor" : [ 0.317647, 0.654902, 0.976471, 1.0 ]
								}
,
								"parentstyle" : "",
								"multi" : 0
							}
, 							{
								"name" : "buttonPurple",
								"default" : 								{
									"bgcolor" : [ 0.372549, 0.196078, 0.486275, 1.0 ]
								}
,
								"parentstyle" : "",
								"multi" : 0
							}
, 							{
								"name" : "default_style",
								"button" : 								{
									"bgcolor" : [ 0.682032, 0.698052, 0.748716, 1.0 ],
									"color" : [ 0.960784, 0.827451, 0.156863, 1.0 ]
								}
,
								"toggle" : 								{
									"bgcolor" : [ 0.636487, 0.648652, 0.683149, 1.0 ],
									"elementcolor" : [ 0.786675, 0.801885, 0.845022, 1.0 ],
									"color" : [ 0.0, 0.0, 0.0, 1.0 ]
								}
,
								"newobj" : 								{
									"bgcolor" : [ 1.0, 1.0, 1.0, 1.0 ],
									"accentcolor" : [ 0.65098, 0.666667, 0.662745, 1.0 ],
									"textcolor_inverse" : [ 0.0, 0.0, 0.0, 1.0 ]
								}
,
								"parentstyle" : "",
								"multi" : 1
							}
, 							{
								"name" : "default_style-1",
								"button" : 								{
									"bgcolor" : [ 0.682032, 0.698052, 0.748716, 1.0 ],
									"color" : [ 0.960784, 0.827451, 0.156863, 1.0 ]
								}
,
								"toggle" : 								{
									"bgcolor" : [ 0.636487, 0.648652, 0.683149, 1.0 ],
									"elementcolor" : [ 0.786675, 0.801885, 0.845022, 1.0 ],
									"color" : [ 0.0, 0.0, 0.0, 1.0 ]
								}
,
								"newobj" : 								{
									"bgcolor" : [ 1.0, 1.0, 1.0, 1.0 ],
									"accentcolor" : [ 0.65098, 0.666667, 0.662745, 1.0 ],
									"textcolor_inverse" : [ 0.0, 0.0, 0.0, 1.0 ]
								}
,
								"parentstyle" : "",
								"multi" : 0
							}
, 							{
								"name" : "helpfile_label-1",
								"default" : 								{
									"fontname" : [ "Arial" ],
									"textcolor" : [ 0.501961, 0.501961, 0.501961, 1.0 ],
									"fontsize" : [ 13.0 ]
								}
,
								"parentstyle" : "",
								"multi" : 0
							}
, 							{
								"name" : "master_style",
								"umenu" : 								{
									"bgfillcolor" : 									{
										"type" : "gradient",
										"color1" : [ 0.786675, 0.801885, 0.845022, 1.0 ],
										"color2" : [ 0.65098, 0.666667, 0.662745, 1.0 ],
										"color" : [ 0.290196, 0.309804, 0.301961, 1.0 ],
										"angle" : 270.0,
										"proportion" : 0.39,
										"autogradient" : 0
									}

								}
,
								"message" : 								{
									"bgfillcolor" : 									{
										"type" : "gradient",
										"color1" : [ 0.786675, 0.801885, 0.845022, 1.0 ],
										"color2" : [ 0.65098, 0.666667, 0.662745, 1.0 ],
										"color" : [ 0.290196, 0.309804, 0.301961, 1.0 ],
										"angle" : 270.0,
										"proportion" : 0.39,
										"autogradient" : 0
									}
,
									"textcolor_inverse" : [ 0.0, 0.0, 0.0, 1.0 ]
								}
,
								"multislider" : 								{
									"bgcolor" : [ 1.0, 1.0, 1.0, 1.0 ],
									"color" : [ 0.0, 0.0, 0.0, 1.0 ]
								}
,
								"attrui" : 								{
									"bgcolor" : [ 0.786675, 0.801885, 0.845022, 1.0 ],
									"textcolor_inverse" : [ 0.0, 0.0, 0.0, 1.0 ]
								}
,
								"slider" : 								{
									"bgcolor" : [ 1.0, 1.0, 1.0, 1.0 ],
									"elementcolor" : [ 0.65098, 0.666667, 0.662745, 1.0 ],
									"color" : [ 0.461105, 0.492646, 0.591878, 1.0 ]
								}
,
								"button" : 								{
									"bgcolor" : [ 0.682032, 0.698052, 0.748716, 1.0 ],
									"elementcolor" : [ 0.786675, 0.801885, 0.845022, 1.0 ],
									"color" : [ 1.0, 0.95051, 0.0, 1.0 ]
								}
,
								"ezadc~" : 								{
									"bgcolor" : [ 0.65098, 0.666667, 0.662745, 1.0 ],
									"elementcolor" : [ 0.862745, 0.870588, 0.878431, 1.0 ],
									"color" : [ 0.0, 0.0, 0.0, 1.0 ]
								}
,
								"toggle" : 								{
									"bgcolor" : [ 0.682032, 0.698052, 0.748716, 1.0 ],
									"elementcolor" : [ 0.65098, 0.666667, 0.662745, 1.0 ],
									"color" : [ 0.0, 0.0, 0.0, 1.0 ]
								}
,
								"ezdac~" : 								{
									"bgcolor" : [ 0.65098, 0.666667, 0.662745, 1.0 ],
									"elementcolor" : [ 0.862745, 0.870588, 0.878431, 1.0 ],
									"color" : [ 0.0, 0.0, 0.0, 1.0 ]
								}
,
								"newobj" : 								{
									"bgcolor" : [ 1.0, 1.0, 1.0, 1.0 ],
									"accentcolor" : [ 0.65098, 0.666667, 0.662745, 1.0 ],
									"textcolor_inverse" : [ 0.0, 0.0, 0.0, 1.0 ]
								}
,
								"function" : 								{
									"bgcolor" : [ 0.65098, 0.666667, 0.662745, 1.0 ],
									"color" : [ 0.0, 0.0, 0.0, 1.0 ]
								}
,
								"gain~" : 								{
									"elementcolor" : [ 0.65098, 0.666667, 0.662745, 1.0 ],
									"color" : [ 1.0, 0.861448, 0.16921, 1.0 ]
								}
,
								"kslider" : 								{
									"elementcolor" : [ 0.65098, 0.666667, 0.662745, 1.0 ],
									"color" : [ 1.0, 1.0, 1.0, 1.0 ]
								}
,
								"parentstyle" : "",
								"multi" : 1
							}
, 							{
								"name" : "master_style-1",
								"umenu" : 								{
									"bgfillcolor" : 									{
										"type" : "gradient",
										"color1" : [ 0.786675, 0.801885, 0.845022, 1.0 ],
										"color2" : [ 0.65098, 0.666667, 0.662745, 1.0 ],
										"color" : [ 0.290196, 0.309804, 0.301961, 1.0 ],
										"angle" : 270.0,
										"proportion" : 0.39,
										"autogradient" : 0
									}

								}
,
								"message" : 								{
									"bgfillcolor" : 									{
										"type" : "gradient",
										"color1" : [ 0.786675, 0.801885, 0.845022, 1.0 ],
										"color2" : [ 0.65098, 0.666667, 0.662745, 1.0 ],
										"color" : [ 0.290196, 0.309804, 0.301961, 1.0 ],
										"angle" : 270.0,
										"proportion" : 0.39,
										"autogradient" : 0.0
									}
,
									"textcolor_inverse" : [ 0.0, 0.0, 0.0, 1.0 ]
								}
,
								"multislider" : 								{
									"bgcolor" : [ 1.0, 1.0, 1.0, 1.0 ],
									"color" : [ 0.0, 0.0, 0.0, 1.0 ]
								}
,
								"attrui" : 								{
									"bgcolor" : [ 0.786675, 0.801885, 0.845022, 1.0 ],
									"textcolor_inverse" : [ 0.0, 0.0, 0.0, 1.0 ]
								}
,
								"slider" : 								{
									"bgcolor" : [ 1.0, 1.0, 1.0, 1.0 ],
									"elementcolor" : [ 0.65098, 0.666667, 0.662745, 1.0 ],
									"color" : [ 0.461105, 0.492646, 0.591878, 1.0 ]
								}
,
								"button" : 								{
									"bgcolor" : [ 0.682032, 0.698052, 0.748716, 1.0 ],
									"elementcolor" : [ 0.786675, 0.801885, 0.845022, 1.0 ],
									"color" : [ 1.0, 0.95051, 0.0, 1.0 ]
								}
,
								"ezadc~" : 								{
									"bgcolor" : [ 0.65098, 0.666667, 0.662745, 1.0 ],
									"elementcolor" : [ 0.862745, 0.870588, 0.878431, 1.0 ],
									"color" : [ 0.0, 0.0, 0.0, 1.0 ]
								}
,
								"toggle" : 								{
									"bgcolor" : [ 0.682032, 0.698052, 0.748716, 1.0 ],
									"elementcolor" : [ 0.65098, 0.666667, 0.662745, 1.0 ],
									"color" : [ 0.0, 0.0, 0.0, 1.0 ]
								}
,
								"ezdac~" : 								{
									"bgcolor" : [ 0.65098, 0.666667, 0.662745, 1.0 ],
									"elementcolor" : [ 0.862745, 0.870588, 0.878431, 1.0 ],
									"color" : [ 0.0, 0.0, 0.0, 1.0 ]
								}
,
								"newobj" : 								{
									"bgcolor" : [ 1.0, 1.0, 1.0, 1.0 ],
									"accentcolor" : [ 0.65098, 0.666667, 0.662745, 1.0 ],
									"textcolor_inverse" : [ 0.0, 0.0, 0.0, 1.0 ]
								}
,
								"function" : 								{
									"bgcolor" : [ 0.65098, 0.666667, 0.662745, 1.0 ],
									"color" : [ 0.0, 0.0, 0.0, 1.0 ]
								}
,
								"gain~" : 								{
									"elementcolor" : [ 0.65098, 0.666667, 0.662745, 1.0 ],
									"color" : [ 1.0, 0.861448, 0.16921, 1.0 ]
								}
,
								"kslider" : 								{
									"elementcolor" : [ 0.65098, 0.666667, 0.662745, 1.0 ],
									"color" : [ 1.0, 1.0, 1.0, 1.0 ]
								}
,
								"parentstyle" : "",
								"multi" : 0
							}
, 							{
								"name" : "messageGreen-1",
								"default" : 								{
									"bgfillcolor" : 									{
										"type" : "gradient",
										"color" : [ 0.290196, 0.309804, 0.301961, 1.0 ],
										"color1" : [ 0.165741, 0.364658, 0.14032, 0.74 ],
										"color2" : [ 0.290196, 0.309804, 0.301961, 1.0 ],
										"angle" : 270.0,
										"proportion" : 0.39,
										"autogradient" : 0
									}

								}
,
								"parentstyle" : "",
								"multi" : 0
							}
, 							{
								"name" : "messagegold",
								"default" : 								{
									"bgfillcolor" : 									{
										"type" : "gradient",
										"color" : [ 0.290196, 0.309804, 0.301961, 1.0 ],
										"color1" : [ 0.764706, 0.592157, 0.101961, 0.74 ],
										"color2" : [ 0.290196, 0.309804, 0.301961, 1.0 ],
										"angle" : 270.0,
										"proportion" : 0.39,
										"autogradient" : 0
									}

								}
,
								"parentstyle" : "",
								"multi" : 0
							}
, 							{
								"name" : "minimal",
								"default" : 								{
									"patchlinecolor" : [ 0.65, 0.65, 0.65, 0.9 ],
									"bgfillcolor" : 									{
										"type" : "color",
										"color" : [ 0.65098, 0.65098, 0.65098, 1.0 ],
										"color1" : [ 0.878431, 0.878431, 0.858824, 1.0 ],
										"color2" : [ 0.290196, 0.309804, 0.301961, 1.0 ],
										"angle" : 270.0,
										"proportion" : 0.99,
										"autogradient" : 0
									}
,
									"bgcolor" : [ 0.878431, 0.878431, 0.858824, 1.0 ],
									"accentcolor" : [ 0.32549, 0.345098, 0.372549, 1.0 ],
									"elementcolor" : [ 0.32549, 0.345098, 0.372549, 0.44 ],
									"selectioncolor" : [ 0.862745, 0.741176, 0.137255, 0.7 ],
									"color" : [ 0.345098, 0.513725, 0.572549, 0.78 ],
									"textcolor_inverse" : [ 0.0, 0.0, 0.0, 1.0 ]
								}
,
								"parentstyle" : "",
								"multi" : 0
							}
, 							{
								"name" : "multisliderBlue&Yellow",
								"default" : 								{
									"bgcolor" : [ 0.317647, 0.654902, 0.976471, 0.79 ],
									"color" : [ 0.960784, 0.867826, 0.084811, 1.0 ]
								}
,
								"parentstyle" : "",
								"multi" : 0
							}
, 							{
								"name" : "newobjBlue-1",
								"default" : 								{
									"accentcolor" : [ 0.317647, 0.654902, 0.976471, 1.0 ]
								}
,
								"parentstyle" : "",
								"multi" : 0
							}
, 							{
								"name" : "newobjBlue-2",
								"default" : 								{
									"accentcolor" : [ 0.317647, 0.654902, 0.976471, 1.0 ]
								}
,
								"parentstyle" : "",
								"multi" : 0
							}
, 							{
								"name" : "newobjBlue-3",
								"default" : 								{
									"accentcolor" : [ 0.317647, 0.654902, 0.976471, 1.0 ]
								}
,
								"parentstyle" : "",
								"multi" : 0
							}
, 							{
								"name" : "newobjBlue-4",
								"default" : 								{
									"accentcolor" : [ 0.317647, 0.654902, 0.976471, 1.0 ]
								}
,
								"parentstyle" : "",
								"multi" : 0
							}
, 							{
								"name" : "newobjBlue-5",
								"default" : 								{
									"accentcolor" : [ 0.317647, 0.654902, 0.976471, 1.0 ]
								}
,
								"parentstyle" : "",
								"multi" : 0
							}
, 							{
								"name" : "newobjBrown-1",
								"default" : 								{
									"accentcolor" : [ 0.654902, 0.572549, 0.376471, 1.0 ]
								}
,
								"parentstyle" : "",
								"multi" : 0
							}
, 							{
								"name" : "newobjBrown-2",
								"default" : 								{
									"accentcolor" : [ 0.654902, 0.572549, 0.376471, 1.0 ]
								}
,
								"parentstyle" : "",
								"multi" : 0
							}
, 							{
								"name" : "newobjBrown-3",
								"default" : 								{
									"accentcolor" : [ 0.654902, 0.572549, 0.376471, 1.0 ]
								}
,
								"parentstyle" : "",
								"multi" : 0
							}
, 							{
								"name" : "newobjBrown-4",
								"default" : 								{
									"accentcolor" : [ 0.654902, 0.572549, 0.376471, 1.0 ]
								}
,
								"parentstyle" : "",
								"multi" : 0
							}
, 							{
								"name" : "newobjCyan-1",
								"default" : 								{
									"accentcolor" : [ 0.029546, 0.773327, 0.821113, 1.0 ]
								}
,
								"parentstyle" : "",
								"multi" : 0
							}
, 							{
								"name" : "newobjGreen-1",
								"default" : 								{
									"accentcolor" : [ 0.0, 0.533333, 0.168627, 1.0 ]
								}
,
								"parentstyle" : "",
								"multi" : 0
							}
, 							{
								"name" : "newobjGreen-2",
								"default" : 								{
									"accentcolor" : [ 0.0, 0.533333, 0.168627, 1.0 ]
								}
,
								"parentstyle" : "",
								"multi" : 0
							}
, 							{
								"name" : "newobjGreen-3",
								"default" : 								{
									"accentcolor" : [ 0.0, 0.533333, 0.168627, 1.0 ]
								}
,
								"parentstyle" : "",
								"multi" : 0
							}
, 							{
								"name" : "newobjGreen-4",
								"default" : 								{
									"accentcolor" : [ 0.0, 0.533333, 0.168627, 1.0 ]
								}
,
								"parentstyle" : "",
								"multi" : 0
							}
, 							{
								"name" : "newobjGreen-5",
								"default" : 								{
									"accentcolor" : [ 0.0, 0.533333, 0.168627, 1.0 ]
								}
,
								"parentstyle" : "",
								"multi" : 0
							}
, 							{
								"name" : "newobjMagenta-1",
								"default" : 								{
									"accentcolor" : [ 0.840663, 0.060168, 0.769195, 1.0 ]
								}
,
								"parentstyle" : "",
								"multi" : 0
							}
, 							{
								"name" : "newobjYellow-1",
								"default" : 								{
									"accentcolor" : [ 0.82517, 0.78181, 0.059545, 1.0 ],
									"fontsize" : [ 12.059008 ]
								}
,
								"parentstyle" : "",
								"multi" : 0
							}
, 							{
								"name" : "newobjYellow-2",
								"default" : 								{
									"accentcolor" : [ 0.82517, 0.78181, 0.059545, 1.0 ],
									"fontsize" : [ 12.059008 ]
								}
,
								"parentstyle" : "",
								"multi" : 0
							}
, 							{
								"name" : "newobjYellow-3",
								"default" : 								{
									"accentcolor" : [ 0.82517, 0.78181, 0.059545, 1.0 ],
									"fontsize" : [ 12.059008 ]
								}
,
								"parentstyle" : "",
								"multi" : 0
							}
, 							{
								"name" : "newobjYellow-4",
								"default" : 								{
									"accentcolor" : [ 0.82517, 0.78181, 0.059545, 1.0 ],
									"fontsize" : [ 12.059008 ]
								}
,
								"parentstyle" : "",
								"multi" : 0
							}
, 							{
								"name" : "newobjYellow-5",
								"default" : 								{
									"accentcolor" : [ 0.82517, 0.78181, 0.059545, 1.0 ],
									"fontsize" : [ 12.059008 ]
								}
,
								"parentstyle" : "",
								"multi" : 0
							}
, 							{
								"name" : "newobjYellow-6",
								"default" : 								{
									"accentcolor" : [ 0.82517, 0.78181, 0.059545, 1.0 ],
									"fontsize" : [ 12.059008 ]
								}
,
								"parentstyle" : "",
								"multi" : 0
							}
, 							{
								"name" : "numberB-1",
								"default" : 								{
									"accentcolor" : [ 0.011765, 0.396078, 0.752941, 1.0 ]
								}
,
								"parentstyle" : "",
								"multi" : 0
							}
, 							{
								"name" : "numberG-1",
								"default" : 								{
									"accentcolor" : [ 0.0, 0.533333, 0.168627, 1.0 ]
								}
,
								"parentstyle" : "",
								"multi" : 0
							}
, 							{
								"name" : "numberGold-1",
								"default" : 								{
									"accentcolor" : [ 0.764706, 0.592157, 0.101961, 1.0 ]
								}
,
								"parentstyle" : "",
								"multi" : 0
							}
, 							{
								"name" : "numberGold-2",
								"default" : 								{
									"accentcolor" : [ 0.764706, 0.592157, 0.101961, 1.0 ]
								}
,
								"parentstyle" : "",
								"multi" : 0
							}
, 							{
								"name" : "numberGold-3",
								"default" : 								{
									"accentcolor" : [ 0.764706, 0.592157, 0.101961, 1.0 ]
								}
,
								"parentstyle" : "",
								"multi" : 0
							}
, 							{
								"name" : "numberGold-4",
								"default" : 								{
									"accentcolor" : [ 0.764706, 0.592157, 0.101961, 1.0 ]
								}
,
								"parentstyle" : "",
								"multi" : 0
							}
, 							{
								"name" : "numberGold-5",
								"default" : 								{
									"accentcolor" : [ 0.764706, 0.592157, 0.101961, 1.0 ]
								}
,
								"parentstyle" : "",
								"multi" : 0
							}
, 							{
								"name" : "numberR-1",
								"default" : 								{
									"accentcolor" : [ 0.784314, 0.145098, 0.023529, 1.0 ]
								}
,
								"parentstyle" : "",
								"multi" : 0
							}
, 							{
								"name" : "panelViolet",
								"default" : 								{
									"bgfillcolor" : 									{
										"type" : "color",
										"color" : [ 0.372549, 0.196078, 0.486275, 0.2 ],
										"color1" : [ 0.454902, 0.462745, 0.482353, 1.0 ],
										"color2" : [ 0.290196, 0.309804, 0.301961, 1.0 ],
										"angle" : 270.0,
										"proportion" : 0.39,
										"autogradient" : 0
									}

								}
,
								"parentstyle" : "",
								"multi" : 0
							}
, 							{
								"name" : "rsliderGold",
								"default" : 								{
									"bgcolor" : [ 0.764706, 0.592157, 0.101961, 1.0 ],
									"color" : [ 0.646639, 0.821777, 0.854593, 1.0 ]
								}
,
								"parentstyle" : "",
								"multi" : 0
							}
, 							{
								"name" : "texteditGold",
								"default" : 								{
									"bgcolor" : [ 0.764706, 0.592157, 0.101961, 0.68 ],
									"textcolor_inverse" : [ 0.0, 0.0, 0.0, 1.0 ]
								}
,
								"parentstyle" : "",
								"multi" : 0
							}
 ]
					}
,
					"patching_rect" : [ 6.21875, 54.0, 84.0, 24.0 ],
					"saved_object_attributes" : 					{
						"description" : "",
						"digest" : "",
						"globalpatchername" : "",
						"tags" : ""
					}
,
					"text" : "p gridshape",
					"varname" : "basic"
				}

			}
, 			{
				"box" : 				{
					"fontname" : "Arial",
					"fontsize" : 12.0,
					"id" : "obj-3",
					"maxclass" : "newobj",
					"numinlets" : 0,
					"numoutlets" : 0,
					"patcher" : 					{
						"fileversion" : 1,
						"appversion" : 						{
							"major" : 8,
							"minor" : 1,
							"revision" : 0,
							"architecture" : "x64",
							"modernui" : 1
						}
,
						"classnamespace" : "box",
						"rect" : [ 0.0, 26.0, 452.0, 603.0 ],
						"bglocked" : 0,
						"openinpresentation" : 0,
						"default_fontsize" : 12.0,
						"default_fontface" : 0,
						"default_fontname" : "Arial",
						"gridonopen" : 1,
						"gridsize" : [ 15.0, 15.0 ],
						"gridsnaponopen" : 1,
						"objectsnaponopen" : 1,
						"statusbarvisible" : 2,
						"toolbarvisible" : 1,
						"lefttoolbarpinned" : 0,
						"toptoolbarpinned" : 0,
						"righttoolbarpinned" : 0,
						"bottomtoolbarpinned" : 0,
						"toolbars_unpinned_last_save" : 0,
						"tallnewobj" : 0,
						"boxanimatetime" : 200,
						"enablehscroll" : 1,
						"enablevscroll" : 1,
						"devicewidth" : 0.0,
						"description" : "",
						"digest" : "",
						"tags" : "",
						"style" : "",
						"subpatcher_template" : "",
						"showontab" : 1,
						"boxes" : [  ],
						"lines" : [  ]
					}
,
					"patching_rect" : [ 20.21875, 162.0, 50.0, 22.0 ],
					"saved_object_attributes" : 					{
						"description" : "",
						"digest" : "",
						"globalpatchername" : "",
						"tags" : ""
					}
,
					"text" : "p ?",
					"varname" : "q_tab"
				}

			}
 ],
		"lines" : [  ],
		"parameters" : 		{
			"obj-34::obj-36" : [ "slider", "slider", 0 ],
			"obj-34::obj-12" : [ "TOL[3]", "TOL[3]", 0 ],
			"obj-34::obj-18" : [ "TOL[7]", "TOL[7]", 0 ],
			"obj-34::obj-56" : [ "slider[3]", "slider", 0 ],
			"obj-34::obj-59" : [ "slider[4]", "slider", 0 ],
			"obj-34::obj-41" : [ "TOL[12]", "TOL[12]", 0 ],
			"obj-34::obj-27" : [ "TOL[9]", "TOL[9]", 0 ],
			"obj-34::obj-16" : [ "TOL[6]", "TOL[6]", 0 ],
			"obj-34::obj-15" : [ "TOL[1]", "TOL[1]", 0 ],
			"obj-34::obj-50" : [ "slider[1]", "slider", 0 ],
			"obj-34::obj-3::obj-11" : [ "live.text[1]", "live.text", 0 ],
			"obj-34::obj-70" : [ "slider[7]", "slider", 0 ],
			"obj-34::obj-21" : [ "TOL[8]", "TOL[8]", 0 ],
			"obj-34::obj-53" : [ "slider[2]", "slider", 0 ],
			"obj-34::obj-23" : [ "TOL[2]", "TOL[2]", 0 ],
			"obj-34::obj-3::obj-13" : [ "live.text[2]", "live.text", 0 ],
			"obj-34::obj-43" : [ "TOL[13]", "TOL[13]", 0 ],
			"obj-34::obj-73" : [ "slider[8]", "slider", 0 ],
			"obj-34::obj-29" : [ "TOL[10]", "TOL[10]", 0 ],
			"obj-34::obj-31" : [ "TOL[11]", "TOL[11]", 0 ],
			"obj-34::obj-62" : [ "slider[5]", "slider", 0 ],
			"obj-34::obj-67" : [ "slider[6]", "slider", 0 ],
			"obj-34::obj-3::obj-126" : [ "live.text", "live.text", 0 ],
			"parameterbanks" : 			{

			}

		}
,
		"dependency_cache" : [ 			{
				"name" : "ossia.gl_pix_brcosa_3ch.model.maxpat",
				"bootpath" : "~/Github/tml-ossia/video/colour/ossia.gl_pix_ brcosa_3ch",
				"patcherrelativepath" : ".",
				"type" : "JSON",
				"implicit" : 1
			}
, 			{
				"name" : "ossia.gl_group_slab.model.maxpat",
				"bootpath" : "~/Github/tml-ossia/video/utility/ossi.gl_group_slab",
				"patcherrelativepath" : "../../utility/ossi.gl_group_slab",
				"type" : "JSON",
				"implicit" : 1
			}
, 			{
				"name" : "ossia.gl_pix_brcosa_3ch.view.maxpat",
				"bootpath" : "~/Github/tml-ossia/video/colour/ossia.gl_pix_ brcosa_3ch",
				"patcherrelativepath" : ".",
				"type" : "JSON",
				"implicit" : 1
			}
, 			{
				"name" : "ossia.gl_group_slab.panel.maxpat",
				"bootpath" : "~/Github/tml-ossia/video/utility/ossi.gl_group_slab",
				"patcherrelativepath" : "../../utility/ossi.gl_group_slab",
				"type" : "JSON",
				"implicit" : 1
			}
, 			{
				"name" : "ossia.gl_group_slab.view.maxpat",
				"bootpath" : "~/Github/tml-ossia/video/utility/ossi.gl_group_slab",
				"patcherrelativepath" : "../../utility/ossi.gl_group_slab",
				"type" : "JSON",
				"implicit" : 1
			}
, 			{
				"name" : "ossia.list2parameter.maxpat",
				"bootpath" : "~/Documents/Max 8/Packages/ossia/patchers/ossia.list2parameter",
				"patcherrelativepath" : "../../../../../Documents/Max 8/Packages/ossia/patchers/ossia.list2parameter",
				"type" : "JSON",
				"implicit" : 1
			}
, 			{
				"name" : "ossia.model.mxo",
				"type" : "iLaX"
			}
, 			{
				"name" : "ossia.parameter.mxo",
				"type" : "iLaX"
			}
, 			{
				"name" : "ossia.view.mxo",
				"type" : "iLaX"
			}
, 			{
				"name" : "ossia.remote.mxo",
				"type" : "iLaX"
			}
 ],
		"autosave" : 0
	}

}
