{
	"patcher" : 	{
		"fileversion" : 1,
		"appversion" : 		{
			"major" : 8,
			"minor" : 1,
			"revision" : 7,
			"architecture" : "x64",
			"modernui" : 1
		}
,
		"classnamespace" : "box",
		"rect" : [ 184.0, 192.0, 861.0, 504.0 ],
		"bglocked" : 0,
		"openinpresentation" : 0,
		"default_fontsize" : 13.0,
		"default_fontface" : 0,
		"default_fontname" : "Arial",
		"gridonopen" : 1,
		"gridsize" : [ 15.0, 15.0 ],
		"gridsnaponopen" : 1,
		"objectsnaponopen" : 1,
		"statusbarvisible" : 2,
		"toolbarvisible" : 1,
		"lefttoolbarpinned" : 0,
		"toptoolbarpinned" : 0,
		"righttoolbarpinned" : 0,
		"bottomtoolbarpinned" : 0,
		"toolbars_unpinned_last_save" : 0,
		"tallnewobj" : 0,
		"boxanimatetime" : 200,
		"enablehscroll" : 1,
		"enablevscroll" : 1,
		"devicewidth" : 0.0,
		"description" : "",
		"digest" : "",
		"tags" : "",
		"style" : "",
		"subpatcher_template" : "",
		"assistshowspatchername" : 0,
		"boxes" : [ 			{
				"box" : 				{
					"id" : "obj-24",
					"maxclass" : "newobj",
					"numinlets" : 1,
					"numoutlets" : 3,
					"outlettype" : [ "", "", "" ],
					"patching_rect" : [ 428.0, 399.0, 186.0, 23.0 ],
					"text" : "ossia.remote rand1/out/final/int"
				}

			}
, 			{
				"box" : 				{
					"fontname" : "Arial",
					"fontsize" : 13.0,
					"id" : "obj-25",
					"maxclass" : "comment",
					"numinlets" : 1,
					"numoutlets" : 0,
					"patching_rect" : [ 491.25, 440.0, 352.0, 21.0 ],
					"text" : "the integer version of the final output (same as midle outlet)"
				}

			}
, 			{
				"box" : 				{
					"fontname" : "Arial",
					"fontsize" : 13.0,
					"format" : 6,
					"id" : "obj-26",
					"maxclass" : "flonum",
					"numinlets" : 1,
					"numoutlets" : 2,
					"outlettype" : [ "", "bang" ],
					"parameter_enable" : 0,
					"patching_rect" : [ 428.25, 440.0, 50.0, 23.0 ]
				}

			}
, 			{
				"box" : 				{
					"id" : "obj-19",
					"maxclass" : "newobj",
					"numinlets" : 1,
					"numoutlets" : 3,
					"outlettype" : [ "", "", "" ],
					"patching_rect" : [ 427.75, 317.0, 169.0, 23.0 ],
					"text" : "ossia.remote rand1/out/final"
				}

			}
, 			{
				"box" : 				{
					"fontname" : "Arial",
					"fontsize" : 13.0,
					"id" : "obj-20",
					"maxclass" : "comment",
					"numinlets" : 1,
					"numoutlets" : 0,
					"patching_rect" : [ 491.0, 358.0, 266.0, 21.0 ],
					"text" : "the default final output (same as left outlet)"
				}

			}
, 			{
				"box" : 				{
					"fontname" : "Arial",
					"fontsize" : 13.0,
					"format" : 6,
					"id" : "obj-21",
					"maxclass" : "flonum",
					"numinlets" : 1,
					"numoutlets" : 2,
					"outlettype" : [ "", "bang" ],
					"parameter_enable" : 0,
					"patching_rect" : [ 428.0, 358.0, 50.0, 23.0 ]
				}

			}
, 			{
				"box" : 				{
					"fontname" : "Arial",
					"fontsize" : 13.0,
					"id" : "obj-14",
					"maxclass" : "comment",
					"numinlets" : 1,
					"numoutlets" : 0,
					"patching_rect" : [ 516.0, 184.0, 206.0, 21.0 ],
					"text" : "access just the clock/metro output"
				}

			}
, 			{
				"box" : 				{
					"id" : "obj-12",
					"maxclass" : "newobj",
					"numinlets" : 1,
					"numoutlets" : 3,
					"outlettype" : [ "", "", "" ],
					"patching_rect" : [ 428.0, 231.0, 239.0, 23.0 ],
					"text" : "ossia.remote rand1/out/pre-interpolation"
				}

			}
, 			{
				"box" : 				{
					"fontname" : "Arial",
					"fontsize" : 9.0,
					"id" : "obj-60",
					"maxclass" : "newobj",
					"numinlets" : 2,
					"numoutlets" : 2,
					"outlettype" : [ "", "" ],
					"patching_rect" : [ 48.75, 304.5, 35.0, 19.0 ],
					"text" : "zl sort"
				}

			}
, 			{
				"box" : 				{
					"fontname" : "Arial",
					"fontsize" : 9.0,
					"id" : "obj-106",
					"maxclass" : "newobj",
					"numinlets" : 2,
					"numoutlets" : 1,
					"outlettype" : [ "" ],
					"patching_rect" : [ 48.75, 281.5, 45.0, 19.0 ],
					"text" : "pak 0. 1."
				}

			}
, 			{
				"box" : 				{
					"fontname" : "Arial",
					"fontsize" : 9.0,
					"id" : "obj-108",
					"maxclass" : "message",
					"numinlets" : 2,
					"numoutlets" : 1,
					"outlettype" : [ "" ],
					"patching_rect" : [ 48.75, 325.5, 88.0, 19.0 ],
					"text" : "setminmax $1 $2"
				}

			}
, 			{
				"box" : 				{
					"id" : "obj-8",
					"linecount" : 2,
					"maxclass" : "newobj",
					"numinlets" : 1,
					"numoutlets" : 3,
					"outlettype" : [ "", "", "" ],
					"patching_rect" : [ 121.75, 231.0, 85.0, 38.0 ],
					"text" : "ossia.remote rand1/max"
				}

			}
, 			{
				"box" : 				{
					"id" : "obj-6",
					"linecount" : 2,
					"maxclass" : "newobj",
					"numinlets" : 1,
					"numoutlets" : 3,
					"outlettype" : [ "", "", "" ],
					"patching_rect" : [ 34.75, 207.0, 85.0, 38.0 ],
					"text" : "ossia.remote rand1/min"
				}

			}
, 			{
				"box" : 				{
					"id" : "obj-22",
					"maxclass" : "button",
					"numinlets" : 1,
					"numoutlets" : 1,
					"outlettype" : [ "bang" ],
					"parameter_enable" : 0,
					"patching_rect" : [ 428.0, 130.0, 75.0, 75.0 ]
				}

			}
, 			{
				"box" : 				{
					"id" : "obj-13",
					"maxclass" : "newobj",
					"numinlets" : 1,
					"numoutlets" : 3,
					"outlettype" : [ "", "", "" ],
					"patching_rect" : [ 428.0, 100.0, 157.0, 23.0 ],
					"text" : "ossia.remote rand1/metro"
				}

			}
, 			{
				"box" : 				{
					"id" : "obj-15",
					"linecount" : 2,
					"maxclass" : "comment",
					"numinlets" : 1,
					"numoutlets" : 0,
					"patching_rect" : [ 129.75, 158.0, 85.0, 36.0 ],
					"text" : "out 1 = float\nout 2 = int"
				}

			}
, 			{
				"box" : 				{
					"id" : "obj-11",
					"linecount" : 2,
					"maxclass" : "message",
					"numinlets" : 2,
					"numoutlets" : 1,
					"outlettype" : [ "" ],
					"patching_rect" : [ 67.5, 131.0, 57.0, 38.0 ],
					"text" : "5.250714"
				}

			}
, 			{
				"box" : 				{
					"id" : "obj-10",
					"maxclass" : "message",
					"numinlets" : 2,
					"numoutlets" : 1,
					"outlettype" : [ "" ],
					"patching_rect" : [ 135.75, 131.0, 57.0, 23.0 ],
					"text" : "5251"
				}

			}
, 			{
				"box" : 				{
					"args" : [ "rand1" ],
					"bgmode" : 0,
					"border" : 0,
					"clickthrough" : 0,
					"enablehscroll" : 0,
					"enablevscroll" : 0,
					"id" : "obj-3",
					"lockeddragscroll" : 0,
					"maxclass" : "bpatcher",
					"name" : "ossia.nav.rand.module.maxpat",
					"numinlets" : 1,
					"numoutlets" : 3,
					"offset" : [ 0.0, 0.0 ],
					"outlettype" : [ "", "", "" ],
					"patching_rect" : [ 105.5, 10.5, 155.5, 73.0 ],
					"viewvisibility" : 1
				}

			}
, 			{
				"box" : 				{
					"candicane2" : [ 0.145098, 0.203922, 0.356863, 1.0 ],
					"candicane3" : [ 0.290196, 0.411765, 0.713726, 1.0 ],
					"candicane4" : [ 0.439216, 0.619608, 0.070588, 1.0 ],
					"candicane5" : [ 0.584314, 0.827451, 0.431373, 1.0 ],
					"candicane6" : [ 0.733333, 0.035294, 0.788235, 1.0 ],
					"candicane7" : [ 0.878431, 0.243137, 0.145098, 1.0 ],
					"candicane8" : [ 0.027451, 0.447059, 0.501961, 1.0 ],
					"id" : "obj-23",
					"maxclass" : "multislider",
					"numinlets" : 1,
					"numoutlets" : 2,
					"outlettype" : [ "", "" ],
					"parameter_enable" : 0,
					"patching_rect" : [ 17.5, 354.0, 120.0, 68.0 ],
					"peakcolor" : [ 0.498039, 0.498039, 0.498039, 1.0 ],
					"setstyle" : 2
				}

			}
, 			{
				"box" : 				{
					"fontname" : "Arial",
					"fontsize" : 13.0,
					"id" : "obj-5",
					"linecount" : 4,
					"maxclass" : "comment",
					"numinlets" : 1,
					"numoutlets" : 0,
					"patching_rect" : [ 266.0, 79.0, 120.0, 65.0 ],
					"text" : "--> step:\n1= normal random\n0-1 = drunk walk\n0 = stationary"
				}

			}
, 			{
				"box" : 				{
					"fontname" : "Arial",
					"fontsize" : 13.0,
					"id" : "obj-1",
					"maxclass" : "newobj",
					"numinlets" : 0,
					"numoutlets" : 0,
					"patcher" : 					{
						"fileversion" : 1,
						"appversion" : 						{
							"major" : 8,
							"minor" : 1,
							"revision" : 7,
							"architecture" : "x64",
							"modernui" : 1
						}
,
						"classnamespace" : "box",
						"rect" : [ 25.0, 69.0, 640.0, 480.0 ],
						"bglocked" : 0,
						"openinpresentation" : 0,
						"default_fontsize" : 12.0,
						"default_fontface" : 0,
						"default_fontname" : "Arial",
						"gridonopen" : 1,
						"gridsize" : [ 15.0, 15.0 ],
						"gridsnaponopen" : 1,
						"objectsnaponopen" : 1,
						"statusbarvisible" : 2,
						"toolbarvisible" : 1,
						"lefttoolbarpinned" : 0,
						"toptoolbarpinned" : 0,
						"righttoolbarpinned" : 0,
						"bottomtoolbarpinned" : 0,
						"toolbars_unpinned_last_save" : 0,
						"tallnewobj" : 0,
						"boxanimatetime" : 200,
						"enablehscroll" : 1,
						"enablevscroll" : 1,
						"devicewidth" : 0.0,
						"description" : "",
						"digest" : "",
						"tags" : "",
						"style" : "",
						"subpatcher_template" : "",
						"assistshowspatchername" : 0,
						"boxes" : [ 							{
								"box" : 								{
									"fontname" : "Arial",
									"fontsize" : 13.0,
									"id" : "obj-3",
									"linecount" : 5,
									"maxclass" : "comment",
									"numinlets" : 1,
									"numoutlets" : 0,
									"patching_rect" : [ 50.0, 100.0, 164.0, 79.0 ],
									"text" : "to add:\nflot/integer (jcom.random)\nLogistic?\nadd atractors\nFilters: repetitions?"
								}

							}
 ],
						"lines" : [  ]
					}
,
					"patching_rect" : [ 786.25, 10.5, 57.0, 23.0 ],
					"saved_object_attributes" : 					{
						"description" : "",
						"digest" : "",
						"globalpatchername" : "",
						"tags" : ""
					}
,
					"text" : "p to add"
				}

			}
, 			{
				"box" : 				{
					"fontname" : "Arial",
					"fontsize" : 13.0,
					"id" : "obj-9",
					"maxclass" : "comment",
					"numinlets" : 1,
					"numoutlets" : 0,
					"patching_rect" : [ 491.25, 272.0, 207.0, 21.0 ],
					"text" : "access the pre-interpolated output"
				}

			}
, 			{
				"box" : 				{
					"fontname" : "Arial",
					"fontsize" : 13.0,
					"format" : 6,
					"id" : "obj-7",
					"maxclass" : "flonum",
					"numinlets" : 1,
					"numoutlets" : 2,
					"outlettype" : [ "", "bang" ],
					"parameter_enable" : 0,
					"patching_rect" : [ 428.25, 272.0, 50.0, 23.0 ]
				}

			}
 ],
		"lines" : [ 			{
				"patchline" : 				{
					"destination" : [ "obj-60", 0 ],
					"source" : [ "obj-106", 0 ]
				}

			}
, 			{
				"patchline" : 				{
					"destination" : [ "obj-23", 0 ],
					"source" : [ "obj-108", 0 ]
				}

			}
, 			{
				"patchline" : 				{
					"destination" : [ "obj-7", 0 ],
					"source" : [ "obj-12", 0 ]
				}

			}
, 			{
				"patchline" : 				{
					"destination" : [ "obj-22", 0 ],
					"source" : [ "obj-13", 0 ]
				}

			}
, 			{
				"patchline" : 				{
					"destination" : [ "obj-21", 0 ],
					"source" : [ "obj-19", 0 ]
				}

			}
, 			{
				"patchline" : 				{
					"destination" : [ "obj-26", 0 ],
					"source" : [ "obj-24", 0 ]
				}

			}
, 			{
				"patchline" : 				{
					"destination" : [ "obj-10", 1 ],
					"source" : [ "obj-3", 1 ]
				}

			}
, 			{
				"patchline" : 				{
					"destination" : [ "obj-11", 1 ],
					"order" : 0,
					"source" : [ "obj-3", 0 ]
				}

			}
, 			{
				"patchline" : 				{
					"destination" : [ "obj-23", 0 ],
					"midpoints" : [ 115.0, 124.25, 27.0, 124.25 ],
					"order" : 1,
					"source" : [ "obj-3", 0 ]
				}

			}
, 			{
				"patchline" : 				{
					"destination" : [ "obj-106", 0 ],
					"source" : [ "obj-6", 1 ]
				}

			}
, 			{
				"patchline" : 				{
					"destination" : [ "obj-108", 0 ],
					"hidden" : 1,
					"midpoints" : [ 58.25, 328.5, 58.25, 328.5 ],
					"source" : [ "obj-60", 0 ]
				}

			}
, 			{
				"patchline" : 				{
					"destination" : [ "obj-106", 1 ],
					"source" : [ "obj-8", 1 ]
				}

			}
 ],
		"dependency_cache" : [ 			{
				"name" : "ossia.nav.rand.module.maxpat",
				"bootpath" : "~/code/ossia converter/ossia.nav.rand",
				"patcherrelativepath" : ".",
				"type" : "JSON",
				"implicit" : 1
			}
, 			{
				"name" : "ossia.nav.rand.model.maxpat",
				"bootpath" : "~/code/ossia converter/ossia.nav.rand",
				"patcherrelativepath" : ".",
				"type" : "JSON",
				"implicit" : 1
			}
, 			{
				"name" : "ossia.nav.rand.view.maxpat",
				"bootpath" : "~/code/ossia converter/ossia.nav.rand",
				"patcherrelativepath" : ".",
				"type" : "JSON",
				"implicit" : 1
			}
, 			{
				"name" : "ossia.parameter.mxo",
				"type" : "iLaX"
			}
, 			{
				"name" : "ossia.model.mxo",
				"type" : "iLaX"
			}
, 			{
				"name" : "ossia.view.mxo",
				"type" : "iLaX"
			}
, 			{
				"name" : "ossia.remote.mxo",
				"type" : "iLaX"
			}
 ],
		"autosave" : 0
	}

}
