{
	"patcher" : 	{
		"fileversion" : 1,
		"appversion" : 		{
			"major" : 8,
			"minor" : 5,
			"revision" : 2,
			"architecture" : "x64",
			"modernui" : 1
		}
,
		"classnamespace" : "box",
		"rect" : [ -1441.0, 69.0, 1195.0, 721.0 ],
		"bglocked" : 0,
		"openinpresentation" : 1,
		"default_fontsize" : 12.0,
		"default_fontface" : 0,
		"default_fontname" : "Arial",
		"gridonopen" : 2,
		"gridsize" : [ 15.0, 15.0 ],
		"gridsnaponopen" : 2,
		"objectsnaponopen" : 0,
		"statusbarvisible" : 2,
		"toolbarvisible" : 1,
		"lefttoolbarpinned" : 0,
		"toptoolbarpinned" : 0,
		"righttoolbarpinned" : 0,
		"bottomtoolbarpinned" : 0,
		"toolbars_unpinned_last_save" : 0,
		"tallnewobj" : 0,
		"boxanimatetime" : 200,
		"enablehscroll" : 1,
		"enablevscroll" : 1,
		"devicewidth" : 0.0,
		"description" : "",
		"digest" : "",
		"tags" : "",
		"style" : "",
		"subpatcher_template" : "",
		"assistshowspatchername" : 0,
		"boxes" : [ 			{
				"box" : 				{
					"id" : "obj-10",
					"maxclass" : "message",
					"numinlets" : 2,
					"numoutlets" : 1,
					"outlettype" : [ "" ],
					"patching_rect" : [ 255.0, 240.0, 55.0, 22.0 ],
					"text" : "explore /"
				}

			}
, 			{
				"box" : 				{
					"id" : "obj-1",
					"maxclass" : "newobj",
					"numinlets" : 1,
					"numoutlets" : 3,
					"outlettype" : [ "", "", "" ],
					"patching_rect" : [ 105.0, 330.0, 107.0, 22.0 ],
					"text" : "ossia.remote input"
				}

			}
, 			{
				"box" : 				{
					"id" : "obj-22",
					"maxclass" : "newobj",
					"numinlets" : 1,
					"numoutlets" : 1,
					"outlettype" : [ "" ],
					"patching_rect" : [ 105.0, 285.0, 133.0, 22.0 ],
					"text" : "prepend display_model"
				}

			}
, 			{
				"box" : 				{
					"id" : "obj-17",
					"maxclass" : "newobj",
					"numinlets" : 1,
					"numoutlets" : 1,
					"outlettype" : [ "" ],
					"patching_rect" : [ 105.0, 240.0, 135.0, 22.0 ],
					"text" : "v #0_selected_model"
				}

			}
, 			{
				"box" : 				{
					"id" : "obj-13",
					"maxclass" : "newobj",
					"numinlets" : 2,
					"numoutlets" : 2,
					"outlettype" : [ "", "" ],
					"patching_rect" : [ 300.0, 630.0, 47.0, 22.0 ],
					"text" : "zl nth 3"
				}

			}
, 			{
				"box" : 				{
					"id" : "obj-11",
					"maxclass" : "newobj",
					"numinlets" : 1,
					"numoutlets" : 1,
					"outlettype" : [ "" ],
					"patching_rect" : [ 300.0, 675.0, 135.0, 22.0 ],
					"text" : "v #0_selected_model"
				}

			}
, 			{
				"box" : 				{
					"id" : "obj-12",
					"maxclass" : "comment",
					"numinlets" : 1,
					"numoutlets" : 0,
					"patching_rect" : [ 165.0, 120.0, 45.0, 20.0 ],
					"presentation" : 1,
					"presentation_rect" : [ 75.0, 5.0, 45.0, 20.0 ],
					"text" : "depth"
				}

			}
, 			{
				"box" : 				{
					"id" : "obj-7",
					"maxclass" : "newobj",
					"numinlets" : 1,
					"numoutlets" : 3,
					"outlettype" : [ "bang", "bang", "" ],
					"patching_rect" : [ 105.0, 195.0, 240.0, 22.0 ],
					"text" : "t b b l"
				}

			}
, 			{
				"box" : 				{
					"id" : "obj-3",
					"maxclass" : "newobj",
					"numinlets" : 1,
					"numoutlets" : 1,
					"outlettype" : [ "" ],
					"patching_rect" : [ 540.0, 15.0, 79.0, 22.0 ],
					"text" : "loadmess set"
				}

			}
, 			{
				"box" : 				{
					"id" : "obj-81",
					"maxclass" : "number",
					"minimum" : 0,
					"numinlets" : 1,
					"numoutlets" : 2,
					"outlettype" : [ "", "bang" ],
					"parameter_enable" : 0,
					"patching_rect" : [ 105.0, 120.0, 50.0, 22.0 ],
					"presentation" : 1,
					"presentation_rect" : [ 120.0, 4.0, 45.0, 22.0 ]
				}

			}
, 			{
				"box" : 				{
					"id" : "obj-78",
					"maxclass" : "newobj",
					"numinlets" : 1,
					"numoutlets" : 1,
					"outlettype" : [ "" ],
					"patching_rect" : [ 105.0, 150.0, 86.0, 22.0 ],
					"text" : "prepend depth"
				}

			}
, 			{
				"box" : 				{
					"id" : "obj-77",
					"maxclass" : "message",
					"numinlets" : 2,
					"numoutlets" : 1,
					"outlettype" : [ "" ],
					"patching_rect" : [ 375.0, 270.0, 55.0, 22.0 ],
					"text" : "explore /"
				}

			}
, 			{
				"box" : 				{
					"id" : "obj-75",
					"maxclass" : "live.text",
					"mode" : 0,
					"numinlets" : 1,
					"numoutlets" : 2,
					"outlettype" : [ "", "" ],
					"parameter_enable" : 1,
					"patching_rect" : [ 360.0, 120.0, 44.0, 15.0 ],
					"presentation" : 1,
					"presentation_rect" : [ 375.0, 0.0, 60.0, 30.0 ],
					"saved_attribute_attributes" : 					{
						"valueof" : 						{
							"parameter_enum" : [ "val1", "val2" ],
							"parameter_longname" : "live.text[197]",
							"parameter_mmax" : 1,
							"parameter_shortname" : "live.text",
							"parameter_type" : 2
						}

					}
,
					"text" : "select none",
					"varname" : "live.text[4]"
				}

			}
, 			{
				"box" : 				{
					"id" : "obj-74",
					"maxclass" : "live.text",
					"mode" : 0,
					"numinlets" : 1,
					"numoutlets" : 2,
					"outlettype" : [ "", "" ],
					"parameter_enable" : 1,
					"patching_rect" : [ 255.0, 120.0, 44.0, 15.0 ],
					"presentation" : 1,
					"presentation_rect" : [ 315.0, 0.0, 60.0, 30.0 ],
					"saved_attribute_attributes" : 					{
						"valueof" : 						{
							"parameter_enum" : [ "val1", "val2" ],
							"parameter_longname" : "live.text[196]",
							"parameter_mmax" : 1,
							"parameter_shortname" : "live.text",
							"parameter_type" : 2
						}

					}
,
					"text" : "select all",
					"varname" : "live.text[3]"
				}

			}
, 			{
				"box" : 				{
					"id" : "obj-68",
					"maxclass" : "live.text",
					"mode" : 0,
					"numinlets" : 1,
					"numoutlets" : 2,
					"outlettype" : [ "", "" ],
					"parameter_enable" : 1,
					"patching_rect" : [ 375.0, 240.0, 44.0, 15.0 ],
					"presentation" : 1,
					"presentation_rect" : [ 0.0, 0.0, 60.0, 30.0 ],
					"saved_attribute_attributes" : 					{
						"valueof" : 						{
							"parameter_enum" : [ "val1", "val2" ],
							"parameter_longname" : "live.text[195]",
							"parameter_mmax" : 1,
							"parameter_shortname" : "live.text",
							"parameter_type" : 2
						}

					}
,
					"text" : "explore",
					"varname" : "live.text[2]"
				}

			}
, 			{
				"box" : 				{
					"id" : "obj-62",
					"maxclass" : "newobj",
					"numinlets" : 2,
					"numoutlets" : 2,
					"outlettype" : [ "", "" ],
					"patching_rect" : [ 615.0, 120.0, 75.0, 22.0 ],
					"text" : "zl reg"
				}

			}
, 			{
				"box" : 				{
					"id" : "obj-41",
					"maxclass" : "live.text",
					"mode" : 0,
					"numinlets" : 1,
					"numoutlets" : 2,
					"outlettype" : [ "", "" ],
					"parameter_enable" : 1,
					"patching_rect" : [ 615.0, 75.0, 44.0, 15.0 ],
					"presentation" : 1,
					"presentation_rect" : [ 375.0, 30.0, 60.0, 30.0 ],
					"saved_attribute_attributes" : 					{
						"valueof" : 						{
							"parameter_enum" : [ "val1", "val2" ],
							"parameter_longname" : "live.text[193]",
							"parameter_mmax" : 1,
							"parameter_shortname" : "live.text",
							"parameter_type" : 2
						}

					}
,
					"text" : "remove",
					"varname" : "live.text[1]"
				}

			}
, 			{
				"box" : 				{
					"id" : "obj-65",
					"maxclass" : "live.text",
					"mode" : 0,
					"numinlets" : 1,
					"numoutlets" : 2,
					"outlettype" : [ "", "" ],
					"parameter_enable" : 1,
					"patching_rect" : [ 480.0, 75.0, 44.0, 15.0 ],
					"presentation" : 1,
					"presentation_rect" : [ 315.0, 30.0, 60.0, 30.0 ],
					"saved_attribute_attributes" : 					{
						"valueof" : 						{
							"parameter_enum" : [ "val1", "val2" ],
							"parameter_longname" : "live.text[194]",
							"parameter_mmax" : 1,
							"parameter_shortname" : "live.text",
							"parameter_type" : 2
						}

					}
,
					"text" : "add",
					"varname" : "live.text"
				}

			}
, 			{
				"box" : 				{
					"id" : "obj-67",
					"maxclass" : "newobj",
					"numinlets" : 1,
					"numoutlets" : 1,
					"outlettype" : [ "" ],
					"patching_rect" : [ 615.0, 150.0, 150.0, 22.0 ],
					"text" : "prepend selection/remove"
				}

			}
, 			{
				"box" : 				{
					"id" : "obj-36",
					"maxclass" : "newobj",
					"numinlets" : 1,
					"numoutlets" : 1,
					"outlettype" : [ "" ],
					"patching_rect" : [ 480.0, 150.0, 127.0, 22.0 ],
					"text" : "prepend selection/add"
				}

			}
, 			{
				"box" : 				{
					"id" : "obj-35",
					"maxclass" : "newobj",
					"numinlets" : 2,
					"numoutlets" : 2,
					"outlettype" : [ "", "" ],
					"patching_rect" : [ 480.0, 120.0, 75.0, 22.0 ],
					"text" : "zl reg"
				}

			}
, 			{
				"box" : 				{
					"id" : "obj-34",
					"maxclass" : "newobj",
					"numinlets" : 2,
					"numoutlets" : 2,
					"outlettype" : [ "", "" ],
					"patching_rect" : [ 540.0, 75.0, 59.0, 22.0 ],
					"text" : "route text"
				}

			}
, 			{
				"box" : 				{
					"id" : "obj-31",
					"keymode" : 1,
					"maxclass" : "textedit",
					"numinlets" : 1,
					"numoutlets" : 4,
					"outlettype" : [ "", "int", "", "" ],
					"outputmode" : 1,
					"parameter_enable" : 0,
					"patching_rect" : [ 540.0, 45.0, 105.0, 20.0 ],
					"presentation" : 1,
					"presentation_rect" : [ 0.0, 30.0, 315.0, 30.0 ],
					"tabmode" : 0
				}

			}
, 			{
				"box" : 				{
					"id" : "obj-28",
					"maxclass" : "message",
					"numinlets" : 2,
					"numoutlets" : 1,
					"outlettype" : [ "" ],
					"patching_rect" : [ 255.0, 150.0, 87.0, 22.0 ],
					"text" : "selection/add *"
				}

			}
, 			{
				"box" : 				{
					"id" : "obj-27",
					"maxclass" : "message",
					"numinlets" : 2,
					"numoutlets" : 1,
					"outlettype" : [ "" ],
					"patching_rect" : [ 360.0, 150.0, 107.0, 22.0 ],
					"text" : "selection/remove *"
				}

			}
, 			{
				"box" : 				{
					"id" : "obj-52",
					"maxclass" : "newobj",
					"numinlets" : 1,
					"numoutlets" : 3,
					"outlettype" : [ "", "", "" ],
					"patching_rect" : [ 75.0, 1050.0, 107.0, 22.0 ],
					"text" : "ossia.remote input"
				}

			}
, 			{
				"box" : 				{
					"bubble" : 1,
					"id" : "obj-135",
					"linecount" : 4,
					"maxclass" : "comment",
					"numinlets" : 1,
					"numoutlets" : 0,
					"patching_rect" : [ 120.0, 675.0, 145.0, 64.0 ],
					"text" : "click: view model contents\ncmd+click: toggle model selection"
				}

			}
, 			{
				"box" : 				{
					"bubble" : 1,
					"id" : "obj-134",
					"linecount" : 2,
					"maxclass" : "comment",
					"numinlets" : 1,
					"numoutlets" : 0,
					"patching_rect" : [ 750.0, 720.0, 151.0, 37.0 ],
					"text" : "only toggle node selection on cmd+click"
				}

			}
, 			{
				"box" : 				{
					"bubble" : 1,
					"bubblepoint" : 1.0,
					"id" : "obj-132",
					"linecount" : 5,
					"maxclass" : "comment",
					"numinlets" : 1,
					"numoutlets" : 0,
					"patching_rect" : [ 495.0, 795.0, 148.0, 78.0 ],
					"text" : "stitch the model name and node name together for the purposes of toggling node selections on/off"
				}

			}
, 			{
				"box" : 				{
					"bubble" : 1,
					"bubbleside" : 3,
					"id" : "obj-131",
					"linecount" : 6,
					"maxclass" : "comment",
					"numinlets" : 1,
					"numoutlets" : 0,
					"patching_rect" : [ 315.0, 930.0, 155.0, 91.0 ],
					"text" : "store the model name, and use it to set the left jit.cellblock back to the selected model after refreshing it with the \"explore /\" message"
				}

			}
, 			{
				"box" : 				{
					"id" : "obj-120",
					"maxclass" : "newobj",
					"numinlets" : 2,
					"numoutlets" : 2,
					"outlettype" : [ "", "" ],
					"patching_rect" : [ 330.0, 765.0, 47.0, 22.0 ],
					"text" : "zl nth 3"
				}

			}
, 			{
				"box" : 				{
					"id" : "obj-4",
					"maxclass" : "message",
					"numinlets" : 2,
					"numoutlets" : 1,
					"outlettype" : [ "" ],
					"patching_rect" : [ 465.0, 990.0, 102.0, 22.0 ],
					"text" : "display_model $1"
				}

			}
, 			{
				"box" : 				{
					"id" : "obj-37",
					"maxclass" : "newobj",
					"numinlets" : 1,
					"numoutlets" : 2,
					"outlettype" : [ "bang", "" ],
					"patching_rect" : [ 705.0, 915.0, 29.5, 22.0 ],
					"text" : "t b l"
				}

			}
, 			{
				"box" : 				{
					"id" : "obj-113",
					"maxclass" : "newobj",
					"numinlets" : 2,
					"numoutlets" : 2,
					"outlettype" : [ "", "" ],
					"patching_rect" : [ 465.0, 960.0, 38.0, 22.0 ],
					"text" : "zl reg"
				}

			}
, 			{
				"box" : 				{
					"id" : "obj-112",
					"maxclass" : "newobj",
					"numinlets" : 1,
					"numoutlets" : 2,
					"outlettype" : [ "bang", "" ],
					"patching_rect" : [ 465.0, 660.0, 29.5, 22.0 ],
					"text" : "t b l"
				}

			}
, 			{
				"box" : 				{
					"id" : "obj-106",
					"maxclass" : "newobj",
					"numinlets" : 1,
					"numoutlets" : 1,
					"outlettype" : [ "bang" ],
					"patching_rect" : [ 705.0, 840.0, 22.0, 22.0 ],
					"text" : "t b"
				}

			}
, 			{
				"box" : 				{
					"id" : "obj-105",
					"maxclass" : "newobj",
					"numinlets" : 2,
					"numoutlets" : 2,
					"outlettype" : [ "", "" ],
					"patching_rect" : [ 705.0, 885.0, 38.0, 22.0 ],
					"text" : "zl reg"
				}

			}
, 			{
				"box" : 				{
					"id" : "obj-40",
					"maxclass" : "newobj",
					"numinlets" : 2,
					"numoutlets" : 2,
					"outlettype" : [ "", "" ],
					"patching_rect" : [ 405.0, 810.0, 38.0, 22.0 ],
					"text" : "zl reg"
				}

			}
, 			{
				"box" : 				{
					"id" : "obj-83",
					"maxclass" : "newobj",
					"numinlets" : 1,
					"numoutlets" : 2,
					"outlettype" : [ "bang", "" ],
					"patching_rect" : [ 465.0, 765.0, 29.5, 22.0 ],
					"text" : "t b l"
				}

			}
, 			{
				"box" : 				{
					"id" : "obj-42",
					"maxclass" : "newobj",
					"numinlets" : 2,
					"numoutlets" : 2,
					"outlettype" : [ "", "" ],
					"patching_rect" : [ 465.0, 735.0, 47.0, 22.0 ],
					"text" : "zl nth 3"
				}

			}
, 			{
				"box" : 				{
					"id" : "obj-73",
					"maxclass" : "newobj",
					"numinlets" : 2,
					"numoutlets" : 1,
					"outlettype" : [ "" ],
					"patching_rect" : [ 405.0, 840.0, 78.0, 22.0 ],
					"text" : "sprintf %s%s"
				}

			}
, 			{
				"box" : 				{
					"id" : "obj-72",
					"maxclass" : "message",
					"numinlets" : 2,
					"numoutlets" : 1,
					"outlettype" : [ "" ],
					"patching_rect" : [ 705.0, 960.0, 162.0, 22.0 ],
					"text" : "selection/switch $1, explore /"
				}

			}
, 			{
				"box" : 				{
					"id" : "obj-66",
					"maxclass" : "newobj",
					"numinlets" : 2,
					"numoutlets" : 1,
					"outlettype" : [ "int" ],
					"patching_rect" : [ 705.0, 765.0, 29.5, 22.0 ],
					"text" : "+ 1"
				}

			}
, 			{
				"box" : 				{
					"id" : "obj-43",
					"maxclass" : "newobj",
					"numinlets" : 2,
					"numoutlets" : 2,
					"outlettype" : [ "", "" ],
					"patching_rect" : [ 705.0, 795.0, 50.0, 22.0 ],
					"text" : "gate 2"
				}

			}
, 			{
				"box" : 				{
					"fontname" : "Arial",
					"fontsize" : 12.0,
					"id" : "obj-71",
					"maxclass" : "newobj",
					"numinlets" : 1,
					"numoutlets" : 5,
					"outlettype" : [ "int", "int", "int", "int", "int" ],
					"patching_rect" : [ 630.0, 720.0, 83.0, 22.0 ],
					"text" : "modifiers 100"
				}

			}
, 			{
				"box" : 				{
					"bgcolor" : [ 0.0, 0.0, 0.0, 1.0 ],
					"celldef" : [ [ 0, 0, 0, 1, 0.0, 0.0, 0.0, 1.0, 0, 0.094117647058824, 0.345098039215686, 0.517647058823529, 1.0, -1, -1, -1 ], [ 0, 1, 0, 1, 0.0, 0.0, 0.0, 1.0, 0, 0.094117647058824, 0.345098039215686, 0.517647058823529, 1.0, -1, -1, -1 ], [ 0, 2, 0, 1, 0.0, 0.0, 0.0, 1.0, 0, 0.094117647058824, 0.345098039215686, 0.517647058823529, 1.0, -1, -1, -1 ], [ 0, 3, 0, 1, 0.0, 0.0, 0.0, 1.0, 0, 0.094117647058824, 0.345098039215686, 0.517647058823529, 1.0, -1, -1, -1 ], [ 0, 4, 0, 1, 0.0, 0.0, 0.0, 1.0, 0, 0.094117647058824, 0.345098039215686, 0.517647058823529, 1.0, -1, -1, -1 ], [ 0, 5, 0, 1, 0.0, 0.0, 0.0, 1.0, 0, 0.094117647058824, 0.345098039215686, 0.517647058823529, 1.0, -1, -1, -1 ], [ 0, 6, 0, 1, 0.0, 0.0, 0.0, 1.0, 0, 0.094117647058824, 0.345098039215686, 0.517647058823529, 1.0, -1, -1, -1 ], [ 0, 7, 0, 1, 0.0, 0.0, 0.0, 1.0, 0, 0.094117647058824, 0.345098039215686, 0.517647058823529, 1.0, -1, -1, -1 ], [ 0, 8, 0, 1, 0.0, 0.0, 0.0, 1.0, 0, 0.094117647058824, 0.345098039215686, 0.517647058823529, 1.0, -1, -1, -1 ], [ 0, 9, 0, 1, 0.0, 0.0, 0.0, 1.0, 0, 0.094117647058824, 0.345098039215686, 0.517647058823529, 1.0, -1, -1, -1 ], [ 0, 10, 0, 1, 0.0, 0.0, 0.0, 1.0, 0, 0.094117647058824, 0.345098039215686, 0.517647058823529, 1.0, -1, -1, -1 ], [ 0, 11, 0, 1, 0.0, 0.0, 0.0, 1.0, 0, 0.094117647058824, 0.345098039215686, 0.517647058823529, 1.0, -1, -1, -1 ], [ 0, 12, 0, 1, 0.0, 0.0, 0.0, 1.0, 0, 0.094117647058824, 0.345098039215686, 0.517647058823529, 1.0, -1, -1, -1 ], [ 0, 13, 0, 1, 0.0, 0.0, 0.0, 1.0, 0, 0.094117647058824, 0.345098039215686, 0.517647058823529, 1.0, -1, -1, -1 ], [ 0, 14, 0, 1, 0.0, 0.0, 0.0, 1.0, 0, 0.094117647058824, 0.345098039215686, 0.517647058823529, 1.0, -1, -1, -1 ], [ 0, 15, 0, 1, 0.0, 0.0, 0.0, 1.0, 0, 0.094117647058824, 0.345098039215686, 0.517647058823529, 1.0, -1, -1, -1 ], [ 0, 16, 0, 1, 0.0, 0.0, 0.0, 1.0, 0, 0.094117647058824, 0.345098039215686, 0.517647058823529, 1.0, -1, -1, -1 ], [ 0, 17, 0, 1, 0.0, 0.0, 0.0, 1.0, 0, 0.094117647058824, 0.345098039215686, 0.517647058823529, 1.0, -1, -1, -1 ], [ 0, 18, 0, 1, 0.0, 0.0, 0.0, 1.0, 0, 0.094117647058824, 0.345098039215686, 0.517647058823529, 1.0, -1, -1, -1 ], [ 0, 19, 0, 1, 0.0, 0.0, 0.0, 1.0, 0, 0.094117647058824, 0.345098039215686, 0.517647058823529, 1.0, -1, -1, -1 ], [ 0, 20, 0, 1, 0.0, 0.0, 0.0, 1.0, 0, 0.094117647058824, 0.345098039215686, 0.517647058823529, 1.0, -1, -1, -1 ], [ 0, 21, 0, 1, 0.0, 0.0, 0.0, 1.0, 0, 0.094117647058824, 0.345098039215686, 0.517647058823529, 1.0, -1, -1, -1 ], [ 0, 22, 0, 1, 0.0, 0.0, 0.0, 1.0, 0, 0.094117647058824, 0.345098039215686, 0.517647058823529, 1.0, -1, -1, -1 ], [ 0, 23, 0, 1, 0.0, 0.0, 0.0, 1.0, 0, 0.094117647058824, 0.345098039215686, 0.517647058823529, 1.0, -1, -1, -1 ], [ 0, 24, 0, 1, 0.0, 0.0, 0.0, 1.0, 0, 0.094117647058824, 0.345098039215686, 0.517647058823529, 1.0, -1, -1, -1 ], [ 0, 25, 0, 1, 0.0, 0.0, 0.0, 1.0, 0, 0.094117647058824, 0.345098039215686, 0.517647058823529, 1.0, -1, -1, -1 ], [ 0, 26, 0, 1, 0.0, 0.0, 0.0, 1.0, 0, 0.094117647058824, 0.345098039215686, 0.517647058823529, 1.0, -1, -1, -1 ], [ 0, 27, 0, 1, 0.0, 0.0, 0.0, 1.0, 0, 0.094117647058824, 0.345098039215686, 0.517647058823529, 1.0, -1, -1, -1 ], [ 0, 28, 0, 1, 0.0, 0.0, 0.0, 1.0, 0, 0.094117647058824, 0.345098039215686, 0.517647058823529, 1.0, -1, -1, -1 ], [ 0, 29, 0, 1, 0.0, 0.0, 0.0, 1.0, 0, 0.094117647058824, 0.345098039215686, 0.517647058823529, 1.0, -1, -1, -1 ], [ 0, 30, 0, 1, 0.0, 0.0, 0.0, 1.0, 0, 0.094117647058824, 0.345098039215686, 0.517647058823529, 1.0, -1, -1, -1 ], [ 0, 31, 0, 1, 0.0, 0.0, 0.0, 1.0, 0, 0.094117647058824, 0.345098039215686, 0.517647058823529, 1.0, -1, -1, -1 ], [ 0, 32, 0, 1, 0.0, 0.0, 0.0, 1.0, 0, 0.094117647058824, 0.345098039215686, 0.517647058823529, 1.0, -1, -1, -1 ], [ 0, 33, 0, 1, 0.0, 0.0, 0.0, 1.0, 0, 0.094117647058824, 0.345098039215686, 0.517647058823529, 1.0, -1, -1, -1 ], [ 0, 34, 0, 1, 0.0, 0.0, 0.0, 1.0, 0, 0.094117647058824, 0.345098039215686, 0.517647058823529, 1.0, -1, -1, -1 ], [ 0, 35, 0, 1, 0.0, 0.0, 0.0, 1.0, 0, 0.094117647058824, 0.345098039215686, 0.517647058823529, 1.0, -1, -1, -1 ], [ 0, 36, 0, 1, 0.0, 0.0, 0.0, 1.0, 0, 0.094117647058824, 0.345098039215686, 0.517647058823529, 1.0, -1, -1, -1 ], [ 0, 37, 0, 1, 0.0, 0.0, 0.0, 1.0, 0, 0.094117647058824, 0.345098039215686, 0.517647058823529, 1.0, -1, -1, -1 ], [ 0, 38, 0, 1, 0.0, 0.0, 0.0, 1.0, 0, 0.094117647058824, 0.345098039215686, 0.517647058823529, 1.0, -1, -1, -1 ], [ 0, 39, 0, 1, 0.0, 0.0, 0.0, 1.0, 0, 0.094117647058824, 0.345098039215686, 0.517647058823529, 1.0, -1, -1, -1 ], [ 0, 40, 0, 1, 0.0, 0.0, 0.0, 1.0, 0, 0.094117647058824, 0.345098039215686, 0.517647058823529, 1.0, -1, -1, -1 ], [ 0, 41, 0, 1, 0.0, 0.0, 0.0, 1.0, 0, 0.094117647058824, 0.345098039215686, 0.517647058823529, 1.0, -1, -1, -1 ], [ 0, 42, 0, 1, 0.0, 0.0, 0.0, 1.0, 0, 0.094117647058824, 0.345098039215686, 0.517647058823529, 1.0, -1, -1, -1 ], [ 0, 43, 0, 1, 0.0, 0.0, 0.0, 1.0, 0, 0.094117647058824, 0.345098039215686, 0.517647058823529, 1.0, -1, -1, -1 ], [ 0, 44, 0, 1, 0.0, 0.0, 0.0, 1.0, 0, 0.094117647058824, 0.345098039215686, 0.517647058823529, 1.0, -1, -1, -1 ], [ 0, 45, 0, 1, 0.0, 0.0, 0.0, 1.0, 0, 0.094117647058824, 0.345098039215686, 0.517647058823529, 1.0, -1, -1, -1 ], [ 0, 46, 0, 1, 0.0, 0.0, 0.0, 1.0, 0, 0.094117647058824, 0.345098039215686, 0.517647058823529, 1.0, -1, -1, -1 ], [ 0, 47, 0, 1, 0.0, 0.0, 0.0, 1.0, 0, 0.094117647058824, 0.345098039215686, 0.517647058823529, 1.0, -1, -1, -1 ], [ 0, 48, 0, 1, 0.0, 0.0, 0.0, 1.0, 0, 0.094117647058824, 0.345098039215686, 0.517647058823529, 1.0, -1, -1, -1 ], [ 0, 49, 0, 1, 0.0, 0.0, 0.0, 1.0, 0, 0.094117647058824, 0.345098039215686, 0.517647058823529, 1.0, -1, -1, -1 ], [ 0, 50, 0, 1, 0.0, 0.0, 0.0, 1.0, 0, 0.094117647058824, 0.345098039215686, 0.517647058823529, 1.0, -1, -1, -1 ], [ 0, 51, 0, 1, 0.0, 0.0, 0.0, 1.0, 0, 0.094117647058824, 0.345098039215686, 0.517647058823529, 1.0, -1, -1, -1 ], [ 0, 52, 0, 1, 0.0, 0.0, 0.0, 1.0, 0, 0.094117647058824, 0.345098039215686, 0.517647058823529, 1.0, -1, -1, -1 ], [ 0, 53, 0, 1, 0.0, 0.0, 0.0, 1.0, 0, 0.094117647058824, 0.345098039215686, 0.517647058823529, 1.0, -1, -1, -1 ], [ 0, 54, 0, 1, 0.0, 0.0, 0.0, 1.0, 0, 0.094117647058824, 0.345098039215686, 0.517647058823529, 1.0, -1, -1, -1 ], [ 0, 55, 0, 1, 0.0, 0.0, 0.0, 1.0, 0, 0.094117647058824, 0.345098039215686, 0.517647058823529, 1.0, -1, -1, -1 ], [ 0, 56, 0, 1, 0.0, 0.0, 0.0, 1.0, 0, 0.094117647058824, 0.345098039215686, 0.517647058823529, 1.0, -1, -1, -1 ], [ 0, 57, 0, 1, 0.0, 0.0, 0.0, 1.0, 0, 0.094117647058824, 0.345098039215686, 0.517647058823529, 1.0, -1, -1, -1 ], [ 0, 58, 0, 1, 0.0, 0.0, 0.0, 1.0, 0, 0.094117647058824, 0.345098039215686, 0.517647058823529, 1.0, -1, -1, -1 ], [ 0, 59, 0, 1, 0.0, 0.0, 0.0, 1.0, 0, 0.094117647058824, 0.345098039215686, 0.517647058823529, 1.0, -1, -1, -1 ], [ 0, 60, 0, 1, 0.0, 0.0, 0.0, 1.0, 0, 0.094117647058824, 0.345098039215686, 0.517647058823529, 1.0, -1, -1, -1 ], [ 0, 61, 0, 1, 0.0, 0.0, 0.0, 1.0, 0, 0.094117647058824, 0.345098039215686, 0.517647058823529, 1.0, -1, -1, -1 ], [ 0, 62, 0, 1, 0.0, 0.0, 0.0, 1.0, 0, 0.094117647058824, 0.345098039215686, 0.517647058823529, 1.0, -1, -1, -1 ], [ 0, 63, 0, 1, 0.0, 0.0, 0.0, 1.0, 0, 0.094117647058824, 0.345098039215686, 0.517647058823529, 1.0, -1, -1, -1 ], [ 0, 64, 0, 1, 0.0, 0.0, 0.0, 1.0, 0, 0.094117647058824, 0.345098039215686, 0.517647058823529, 1.0, -1, -1, -1 ], [ 0, 65, 0, 1, 0.0, 0.0, 0.0, 1.0, 0, 0.094117647058824, 0.345098039215686, 0.517647058823529, 1.0, -1, -1, -1 ], [ 0, 66, 0, 1, 0.0, 0.0, 0.0, 1.0, 0, 0.094117647058824, 0.345098039215686, 0.517647058823529, 1.0, -1, -1, -1 ], [ 0, 67, 0, 1, 0.0, 0.0, 0.0, 1.0, 0, 0.094117647058824, 0.345098039215686, 0.517647058823529, 1.0, -1, -1, -1 ], [ 0, 68, 0, 1, 0.0, 0.0, 0.0, 1.0, 0, 0.094117647058824, 0.345098039215686, 0.517647058823529, 1.0, -1, -1, -1 ], [ 0, 69, 0, 1, 0.0, 0.0, 0.0, 1.0, 0, 0.094117647058824, 0.345098039215686, 0.517647058823529, 1.0, -1, -1, -1 ], [ 0, 70, 0, 1, 0.0, 0.0, 0.0, 1.0, 0, 0.094117647058824, 0.345098039215686, 0.517647058823529, 1.0, -1, -1, -1 ], [ 0, 71, 0, 1, 0.0, 0.0, 0.0, 1.0, 0, 0.094117647058824, 0.345098039215686, 0.517647058823529, 1.0, -1, -1, -1 ], [ 0, 72, 0, 1, 0.0, 0.0, 0.0, 1.0, 0, 0.094117647058824, 0.345098039215686, 0.517647058823529, 1.0, -1, -1, -1 ], [ 0, 73, 0, 1, 0.0, 0.0, 0.0, 1.0, 0, 0.094117647058824, 0.345098039215686, 0.517647058823529, 1.0, -1, -1, -1 ], [ 0, 74, 0, 1, 0.0, 0.0, 0.0, 1.0, 0, 0.094117647058824, 0.345098039215686, 0.517647058823529, 1.0, -1, -1, -1 ], [ 0, 75, 0, 1, 0.0, 0.0, 0.0, 1.0, 0, 0.094117647058824, 0.345098039215686, 0.517647058823529, 1.0, -1, -1, -1 ], [ 0, 76, 0, 1, 0.0, 0.0, 0.0, 1.0, 0, 0.094117647058824, 0.345098039215686, 0.517647058823529, 1.0, -1, -1, -1 ], [ 0, 77, 0, 1, 0.0, 0.0, 0.0, 1.0, 0, 0.094117647058824, 0.345098039215686, 0.517647058823529, 1.0, -1, -1, -1 ], [ 0, 78, 0, 1, 0.0, 0.0, 0.0, 1.0, 0, 0.094117647058824, 0.345098039215686, 0.517647058823529, 1.0, -1, -1, -1 ], [ 0, 79, 0, 1, 0.0, 0.0, 0.0, 1.0, 0, 0.094117647058824, 0.345098039215686, 0.517647058823529, 1.0, -1, -1, -1 ], [ 0, 80, 0, 1, 0.0, 0.0, 0.0, 1.0, 0, 0.094117647058824, 0.345098039215686, 0.517647058823529, 1.0, -1, -1, -1 ], [ 0, 81, 0, 1, 0.0, 0.0, 0.0, 1.0, 0, 0.094117647058824, 0.345098039215686, 0.517647058823529, 1.0, -1, -1, -1 ], [ 0, 82, 0, 1, 0.0, 0.0, 0.0, 1.0, 0, 0.094117647058824, 0.345098039215686, 0.517647058823529, 1.0, -1, -1, -1 ], [ 0, 83, 0, 1, 0.0, 0.0, 0.0, 1.0, 0, 0.094117647058824, 0.345098039215686, 0.517647058823529, 1.0, -1, -1, -1 ], [ 0, 84, 0, 1, 0.0, 0.0, 0.0, 1.0, 0, 0.094117647058824, 0.345098039215686, 0.517647058823529, 1.0, -1, -1, -1 ], [ 0, 85, 0, 1, 0.0, 0.0, 0.0, 1.0, 0, 0.094117647058824, 0.345098039215686, 0.517647058823529, 1.0, -1, -1, -1 ], [ 0, 86, 0, 1, 0.0, 0.0, 0.0, 1.0, 0, 0.094117647058824, 0.345098039215686, 0.517647058823529, 1.0, -1, -1, -1 ], [ 0, 87, 0, 1, 0.0, 0.0, 0.0, 1.0, 0, 0.094117647058824, 0.345098039215686, 0.517647058823529, 1.0, -1, -1, -1 ], [ 0, 88, 0, 1, 0.0, 0.0, 0.0, 1.0, 0, 0.094117647058824, 0.345098039215686, 0.517647058823529, 1.0, -1, -1, -1 ], [ 0, 89, 0, 1, 0.0, 0.0, 0.0, 1.0, 0, 0.094117647058824, 0.345098039215686, 0.517647058823529, 1.0, -1, -1, -1 ], [ 0, 90, 0, 1, 0.0, 0.0, 0.0, 1.0, 0, 0.094117647058824, 0.345098039215686, 0.517647058823529, 1.0, -1, -1, -1 ] ],
					"cols" : 1,
					"colwidth" : 200,
					"fgcolor" : [ 1.0, 1.0, 1.0, 1.0 ],
					"fontface" : 0,
					"fontname" : "Arial",
					"fontsize" : 12.0,
					"hcellcolor" : [ 0.537254901960784, 0.537254901960784, 0.537254901960784, 0.501960784313725 ],
					"id" : "obj-54",
					"maxclass" : "jit.cellblock",
					"numinlets" : 2,
					"numoutlets" : 4,
					"outlettype" : [ "list", "", "", "" ],
					"patching_rect" : [ 465.0, 465.0, 164.0, 189.0 ],
					"presentation" : 1,
					"presentation_rect" : [ 210.0, 60.0, 225.0, 480.0 ],
					"rows" : 91
				}

			}
, 			{
				"box" : 				{
					"id" : "obj-76",
					"maxclass" : "message",
					"numinlets" : 2,
					"numoutlets" : 1,
					"outlettype" : [ "" ],
					"patching_rect" : [ 75.0, 810.0, 102.0, 22.0 ],
					"text" : "display_model $3"
				}

			}
, 			{
				"box" : 				{
					"id" : "obj-45",
					"maxclass" : "newobj",
					"numinlets" : 2,
					"numoutlets" : 1,
					"outlettype" : [ "int" ],
					"patching_rect" : [ 75.0, 735.0, 29.5, 22.0 ],
					"text" : "+ 1"
				}

			}
, 			{
				"box" : 				{
					"id" : "obj-46",
					"maxclass" : "newobj",
					"numinlets" : 2,
					"numoutlets" : 2,
					"outlettype" : [ "", "" ],
					"patching_rect" : [ 75.0, 765.0, 50.0, 22.0 ],
					"text" : "gate 2"
				}

			}
, 			{
				"box" : 				{
					"fontname" : "Arial",
					"fontsize" : 12.0,
					"id" : "obj-70",
					"maxclass" : "newobj",
					"numinlets" : 1,
					"numoutlets" : 5,
					"outlettype" : [ "int", "int", "int", "int", "int" ],
					"patching_rect" : [ 15.0, 690.0, 83.0, 22.0 ],
					"text" : "modifiers 100"
				}

			}
, 			{
				"box" : 				{
					"id" : "obj-69",
					"linecount" : 3,
					"maxclass" : "message",
					"numinlets" : 2,
					"numoutlets" : 1,
					"outlettype" : [ "" ],
					"patching_rect" : [ 195.0, 810.0, 105.0, 49.0 ],
					"text" : "selection/switch $3, explore /, display_model $3"
				}

			}
, 			{
				"box" : 				{
					"id" : "obj-59",
					"maxclass" : "newobj",
					"numinlets" : 3,
					"numoutlets" : 3,
					"outlettype" : [ "", "", "" ],
					"patching_rect" : [ 105.0, 420.0, 142.0, 22.0 ],
					"text" : "route models parameters"
				}

			}
, 			{
				"box" : 				{
					"bgcolor" : [ 0.0, 0.0, 0.0, 1.0 ],
					"celldef" : [ [ 0, 0, 0, 1, 0.0, 0.0, 0.0, 1.0, 0, 0.094117647058824, 0.345098039215686, 0.517647058823529, 1.0, -1, -1, -1 ], [ 0, 1, 0, 1, 0.0, 0.0, 0.0, 1.0, 0, 0.094117647058824, 0.345098039215686, 0.517647058823529, 1.0, -1, -1, -1 ], [ 0, 2, 0, 1, 0.0, 0.0, 0.0, 1.0, 0, 0.094117647058824, 0.345098039215686, 0.517647058823529, 1.0, -1, -1, -1 ], [ 0, 3, 0, 1, 0.0, 0.0, 0.0, 1.0, 0, 0.094117647058824, 0.345098039215686, 0.517647058823529, 1.0, -1, -1, -1 ], [ 0, 4, 0, 1, 0.0, 0.0, 0.0, 1.0, 0, 0.094117647058824, 0.345098039215686, 0.517647058823529, 1.0, -1, -1, -1 ], [ 0, 5, 0, 1, 0.0, 0.0, 0.0, 1.0, 0, 0.094117647058824, 0.345098039215686, 0.517647058823529, 1.0, -1, -1, -1 ], [ 0, 6, 0, 1, 0.0, 0.0, 0.0, 1.0, 0, 0.094117647058824, 0.345098039215686, 0.517647058823529, 1.0, -1, -1, -1 ], [ 0, 7, 0, 1, 0.0, 0.0, 0.0, 1.0, 0, 0.094117647058824, 0.345098039215686, 0.517647058823529, 1.0, -1, -1, -1 ], [ 0, 8, 0, 1, 0.0, 0.0, 0.0, 1.0, 0, 0.094117647058824, 0.345098039215686, 0.517647058823529, 1.0, -1, -1, -1 ], [ 0, 9, 0, 1, 0.0, 0.0, 0.0, 1.0, 0, 0.094117647058824, 0.345098039215686, 0.517647058823529, 1.0, -1, -1, -1 ] ],
					"cols" : 1,
					"colwidth" : 200,
					"fgcolor" : [ 1.0, 1.0, 1.0, 1.0 ],
					"fontface" : 0,
					"fontname" : "Arial",
					"fontsize" : 12.0,
					"hcellcolor" : [ 0.537254901960784, 0.537254901960784, 0.537254901960784, 0.501960784313725 ],
					"id" : "obj-50",
					"maxclass" : "jit.cellblock",
					"numinlets" : 2,
					"numoutlets" : 4,
					"outlettype" : [ "list", "", "", "" ],
					"patching_rect" : [ 105.0, 465.0, 164.0, 189.0 ],
					"presentation" : 1,
					"presentation_rect" : [ 0.0, 60.0, 210.0, 480.0 ]
				}

			}
, 			{
				"box" : 				{
					"id" : "obj-47",
					"maxclass" : "newobj",
					"numinlets" : 1,
					"numoutlets" : 3,
					"outlettype" : [ "", "", "" ],
					"patching_rect" : [ 105.0, 375.0, 114.0, 22.0 ],
					"text" : "ossia.remote output"
				}

			}
 ],
		"lines" : [ 			{
				"patchline" : 				{
					"destination" : [ "obj-1", 0 ],
					"midpoints" : [ 264.5, 324.0, 114.5, 324.0 ],
					"source" : [ "obj-10", 0 ]
				}

			}
, 			{
				"patchline" : 				{
					"destination" : [ "obj-37", 0 ],
					"source" : [ "obj-105", 0 ]
				}

			}
, 			{
				"patchline" : 				{
					"destination" : [ "obj-105", 0 ],
					"source" : [ "obj-106", 0 ]
				}

			}
, 			{
				"patchline" : 				{
					"destination" : [ "obj-42", 0 ],
					"midpoints" : [ 485.0, 721.0, 474.5, 721.0 ],
					"source" : [ "obj-112", 1 ]
				}

			}
, 			{
				"patchline" : 				{
					"destination" : [ "obj-43", 1 ],
					"midpoints" : [ 474.5, 708.0, 745.5, 708.0 ],
					"source" : [ "obj-112", 0 ]
				}

			}
, 			{
				"patchline" : 				{
					"destination" : [ "obj-4", 0 ],
					"source" : [ "obj-113", 0 ]
				}

			}
, 			{
				"patchline" : 				{
					"destination" : [ "obj-113", 1 ],
					"midpoints" : [ 339.5, 933.000001788139343, 493.5, 933.000001788139343 ],
					"order" : 0,
					"source" : [ "obj-120", 0 ]
				}

			}
, 			{
				"patchline" : 				{
					"destination" : [ "obj-40", 0 ],
					"midpoints" : [ 339.5, 798.0, 414.5, 798.0 ],
					"order" : 1,
					"source" : [ "obj-120", 0 ]
				}

			}
, 			{
				"patchline" : 				{
					"destination" : [ "obj-11", 0 ],
					"source" : [ "obj-13", 0 ]
				}

			}
, 			{
				"patchline" : 				{
					"destination" : [ "obj-22", 0 ],
					"source" : [ "obj-17", 0 ]
				}

			}
, 			{
				"patchline" : 				{
					"destination" : [ "obj-1", 0 ],
					"source" : [ "obj-22", 0 ]
				}

			}
, 			{
				"patchline" : 				{
					"destination" : [ "obj-7", 0 ],
					"source" : [ "obj-27", 0 ]
				}

			}
, 			{
				"patchline" : 				{
					"destination" : [ "obj-7", 0 ],
					"source" : [ "obj-28", 0 ]
				}

			}
, 			{
				"patchline" : 				{
					"destination" : [ "obj-31", 0 ],
					"source" : [ "obj-3", 0 ]
				}

			}
, 			{
				"patchline" : 				{
					"destination" : [ "obj-34", 0 ],
					"source" : [ "obj-31", 0 ]
				}

			}
, 			{
				"patchline" : 				{
					"destination" : [ "obj-35", 1 ],
					"midpoints" : [ 549.5, 108.0, 545.5, 108.0 ],
					"order" : 1,
					"source" : [ "obj-34", 0 ]
				}

			}
, 			{
				"patchline" : 				{
					"destination" : [ "obj-62", 1 ],
					"midpoints" : [ 549.5, 108.0, 680.5, 108.0 ],
					"order" : 0,
					"source" : [ "obj-34", 0 ]
				}

			}
, 			{
				"patchline" : 				{
					"destination" : [ "obj-36", 0 ],
					"source" : [ "obj-35", 0 ]
				}

			}
, 			{
				"patchline" : 				{
					"destination" : [ "obj-7", 0 ],
					"source" : [ "obj-36", 0 ]
				}

			}
, 			{
				"patchline" : 				{
					"destination" : [ "obj-113", 0 ],
					"midpoints" : [ 714.5, 948.0, 474.5, 948.0 ],
					"source" : [ "obj-37", 0 ]
				}

			}
, 			{
				"patchline" : 				{
					"destination" : [ "obj-72", 0 ],
					"midpoints" : [ 725.0, 948.0, 714.5, 948.0 ],
					"source" : [ "obj-37", 1 ]
				}

			}
, 			{
				"patchline" : 				{
					"destination" : [ "obj-52", 0 ],
					"midpoints" : [ 474.5, 1035.0, 84.5, 1035.0 ],
					"source" : [ "obj-4", 0 ]
				}

			}
, 			{
				"patchline" : 				{
					"destination" : [ "obj-73", 0 ],
					"source" : [ "obj-40", 0 ]
				}

			}
, 			{
				"patchline" : 				{
					"destination" : [ "obj-62", 0 ],
					"source" : [ "obj-41", 0 ]
				}

			}
, 			{
				"patchline" : 				{
					"destination" : [ "obj-83", 0 ],
					"source" : [ "obj-42", 0 ]
				}

			}
, 			{
				"patchline" : 				{
					"destination" : [ "obj-106", 0 ],
					"midpoints" : [ 745.5, 828.0, 714.5, 828.0 ],
					"source" : [ "obj-43", 1 ]
				}

			}
, 			{
				"patchline" : 				{
					"destination" : [ "obj-46", 0 ],
					"midpoints" : [ 84.5, 752.0, 84.5, 752.0 ],
					"source" : [ "obj-45", 0 ]
				}

			}
, 			{
				"patchline" : 				{
					"destination" : [ "obj-69", 0 ],
					"midpoints" : [ 115.5, 798.0, 204.5, 798.0 ],
					"source" : [ "obj-46", 1 ]
				}

			}
, 			{
				"patchline" : 				{
					"destination" : [ "obj-76", 0 ],
					"midpoints" : [ 84.5, 785.0, 84.5, 785.0 ],
					"source" : [ "obj-46", 0 ]
				}

			}
, 			{
				"patchline" : 				{
					"destination" : [ "obj-59", 0 ],
					"midpoints" : [ 162.0, 408.0, 114.5, 408.0 ],
					"source" : [ "obj-47", 1 ]
				}

			}
, 			{
				"patchline" : 				{
					"destination" : [ "obj-120", 0 ],
					"midpoints" : [ 114.5, 739.0, 339.5, 739.0 ],
					"order" : 0,
					"source" : [ "obj-50", 0 ]
				}

			}
, 			{
				"patchline" : 				{
					"destination" : [ "obj-13", 0 ],
					"order" : 1,
					"source" : [ "obj-50", 0 ]
				}

			}
, 			{
				"patchline" : 				{
					"destination" : [ "obj-46", 1 ],
					"midpoints" : [ 114.5, 722.0, 115.5, 722.0 ],
					"order" : 2,
					"source" : [ "obj-50", 0 ]
				}

			}
, 			{
				"patchline" : 				{
					"destination" : [ "obj-112", 0 ],
					"source" : [ "obj-54", 0 ]
				}

			}
, 			{
				"patchline" : 				{
					"destination" : [ "obj-50", 0 ],
					"midpoints" : [ 114.5, 443.0, 114.5, 443.0 ],
					"source" : [ "obj-59", 0 ]
				}

			}
, 			{
				"patchline" : 				{
					"destination" : [ "obj-54", 0 ],
					"midpoints" : [ 176.0, 453.0, 474.5, 453.0 ],
					"source" : [ "obj-59", 1 ]
				}

			}
, 			{
				"patchline" : 				{
					"destination" : [ "obj-67", 0 ],
					"source" : [ "obj-62", 0 ]
				}

			}
, 			{
				"patchline" : 				{
					"destination" : [ "obj-35", 0 ],
					"source" : [ "obj-65", 0 ]
				}

			}
, 			{
				"patchline" : 				{
					"destination" : [ "obj-43", 0 ],
					"midpoints" : [ 714.5, 783.0, 714.5, 783.0 ],
					"source" : [ "obj-66", 0 ]
				}

			}
, 			{
				"patchline" : 				{
					"destination" : [ "obj-7", 0 ],
					"source" : [ "obj-67", 0 ]
				}

			}
, 			{
				"patchline" : 				{
					"destination" : [ "obj-77", 0 ],
					"source" : [ "obj-68", 0 ]
				}

			}
, 			{
				"patchline" : 				{
					"destination" : [ "obj-52", 0 ],
					"midpoints" : [ 204.5, 1035.0, 84.5, 1035.0 ],
					"source" : [ "obj-69", 0 ]
				}

			}
, 			{
				"patchline" : 				{
					"destination" : [ "obj-1", 0 ],
					"midpoints" : [ 335.5, 324.0, 114.5, 324.0 ],
					"source" : [ "obj-7", 2 ]
				}

			}
, 			{
				"patchline" : 				{
					"destination" : [ "obj-10", 0 ],
					"midpoints" : [ 225.0, 234.0, 264.5, 234.0 ],
					"source" : [ "obj-7", 1 ]
				}

			}
, 			{
				"patchline" : 				{
					"destination" : [ "obj-17", 0 ],
					"source" : [ "obj-7", 0 ]
				}

			}
, 			{
				"patchline" : 				{
					"destination" : [ "obj-45", 0 ],
					"midpoints" : [ 88.5, 719.0, 84.5, 719.0 ],
					"source" : [ "obj-70", 4 ]
				}

			}
, 			{
				"patchline" : 				{
					"destination" : [ "obj-66", 0 ],
					"midpoints" : [ 703.5, 753.0, 714.5, 753.0 ],
					"source" : [ "obj-71", 4 ]
				}

			}
, 			{
				"patchline" : 				{
					"destination" : [ "obj-52", 0 ],
					"midpoints" : [ 714.5, 1035.0, 84.5, 1035.0 ],
					"source" : [ "obj-72", 0 ]
				}

			}
, 			{
				"patchline" : 				{
					"destination" : [ "obj-105", 1 ],
					"midpoints" : [ 414.5, 871.0, 733.5, 871.0 ],
					"source" : [ "obj-73", 0 ]
				}

			}
, 			{
				"patchline" : 				{
					"destination" : [ "obj-28", 0 ],
					"source" : [ "obj-74", 0 ]
				}

			}
, 			{
				"patchline" : 				{
					"destination" : [ "obj-27", 0 ],
					"source" : [ "obj-75", 0 ]
				}

			}
, 			{
				"patchline" : 				{
					"destination" : [ "obj-52", 0 ],
					"midpoints" : [ 84.5, 1035.0, 84.5, 1035.0 ],
					"source" : [ "obj-76", 0 ]
				}

			}
, 			{
				"patchline" : 				{
					"destination" : [ "obj-1", 0 ],
					"midpoints" : [ 384.5, 324.0, 114.5, 324.0 ],
					"source" : [ "obj-77", 0 ]
				}

			}
, 			{
				"patchline" : 				{
					"destination" : [ "obj-7", 0 ],
					"source" : [ "obj-78", 0 ]
				}

			}
, 			{
				"patchline" : 				{
					"destination" : [ "obj-78", 0 ],
					"source" : [ "obj-81", 0 ]
				}

			}
, 			{
				"patchline" : 				{
					"destination" : [ "obj-40", 0 ],
					"midpoints" : [ 474.5, 794.0, 414.5, 794.0 ],
					"source" : [ "obj-83", 0 ]
				}

			}
, 			{
				"patchline" : 				{
					"destination" : [ "obj-73", 1 ],
					"midpoints" : [ 485.0, 809.0, 473.5, 809.0 ],
					"source" : [ "obj-83", 1 ]
				}

			}
 ],
		"bgcolor" : [ 1.0, 1.0, 1.0, 0.0 ]
	}

}
